<?xml version="1.0" encoding="UTF-8" standalone="no"?><!DOCTYPE svg PUBLIC "-//W3C//DTD SVG 1.1//EN" "http://www.w3.org/Graphics/SVG/1.1/DTD/svg11.dtd"><svg width="100%" height="100%" viewBox="0 0 98 98" version="1.1" xmlns="http://www.w3.org/2000/svg" xmlns:xlink="http://www.w3.org/1999/xlink" xml:space="preserve" xmlns:serif="http://www.serif.com/" style="fill-rule:evenodd;clip-rule:evenodd;stroke-linejoin:round;stroke-miterlimit:2;"><path d="M95.907,1.626c-2.168,-2.168 -5.689,-2.168 -7.857,0l-86.424,86.424c-2.168,2.168 -2.168,5.689 0,7.857l0,0c2.168,2.168 5.689,2.168 7.857,0l86.424,-86.424c2.168,-2.168 2.168,-5.689 0,-7.857l0,0Z" style="fill:#f9eee1;"/><path d="M1.626,1.626c-2.168,2.169 -2.168,5.689 0,7.857l86.424,86.424c2.168,2.168 5.689,2.168 7.857,0l0,0c2.168,-2.168 2.168,-5.688 0,-7.856l-86.424,-86.425c-2.168,-2.168 -5.689,-2.168 -7.857,0l0,0Z" style="fill:#f9eee1;"/></svg>