<svg width="24" height="28" viewBox="0 0 24 28" fill="none" xmlns="http://www.w3.org/2000/svg">
    <mask id="path-1-inside-1_147_8" fill="white">
        <path fill-rule="evenodd" clip-rule="evenodd"
            d="M18 16.9047C18 16.9046 18 16.9045 18 16.9044C18 12.7222 15.2358 9.19583 11.4622 8.10787C10.9874 7.97099 10.4967 8.05962 9.99343 8.15052C9.66722 8.20943 9.33576 8.2693 9 8.2693C8.67959 8.2693 8.3631 8.19995 8.05134 8.13163C7.60714 8.03429 7.17257 7.93905 6.75 8.04954C2.86824 9.0645 0 12.6442 0 16.9044C0 16.9045 0 16.9046 0 16.9047V20C0 21.6569 1.34315 23 3 23H15C16.6569 23 18 21.6569 18 20V16.9047Z" />
    </mask>
    <path
        d="M11.4622 8.10787L10.9082 10.0296L11.4622 8.10787ZM9.99343 8.15052L10.3489 10.1187H10.3489L9.99343 8.15052ZM8.05134 8.13163L7.62322 10.0853L7.62322 10.0853L8.05134 8.13163ZM6.75 8.04954L6.24407 6.11459L6.75 8.04954ZM16 16.9044V16.9044C16 16.9044 16 16.9044 16 16.9044C16 16.9044 16 16.9044 16 16.9044V16.9044C16 16.9044 16 16.9044 16 16.9044C16 16.9044 16 16.9044 16 16.9044V16.9044C16 16.9044 16 16.9044 16 16.9044C16 16.9044 16 16.9044 16 16.9044V16.9044C16 16.9044 16 16.9044 16 16.9044V16.9044C16 16.9044 16 16.9044 16 16.9044C16 16.9044 16 16.9044 16 16.9044V16.9044C16 16.9044 16 16.9044 16 16.9044C16 16.9044 16 16.9044 16 16.9044V16.9044C16 16.9044 16 16.9044 16 16.9044C16 16.9044 16 16.9044 16 16.9044C16 16.9044 16 16.9044 16 16.9044C16 16.9044 16 16.9044 16 16.9044V16.9044C16 16.9044 16 16.9044 16 16.9044C16 16.9044 16 16.9044 16 16.9044V16.9044C16 16.9044 16 16.9044 16 16.9044C16 16.9044 16 16.9044 16 16.9044V16.9044C16 16.9044 16 16.9044 16 16.9044V16.9044C16 16.9044 16 16.9044 16 16.9044C16 16.9044 16 16.9044 16 16.9044V16.9044C16 16.9044 16 16.9044 16 16.9044C16 16.9044 16 16.9044 16 16.9044V16.9044C16 16.9044 16 16.9044 16 16.9044C16 16.9044 16 16.9044 16 16.9044V16.9044C16 16.9044 16 16.9044 16 16.9044V16.9044C16 16.9044 16 16.9044 16 16.9044C16 16.9044 16 16.9044 16 16.9044V16.9044C16 16.9044 16 16.9044 16 16.9044C16 16.9044 16 16.9044 16 16.9044V16.9044C16 16.9044 16 16.9044 16 16.9044C16 16.9044 16 16.9044 16 16.9044C16 16.9044 16 16.9044 16 16.9044C16 16.9044 16 16.9044 16 16.9044V16.9044C16 16.9044 16 16.9044 16 16.9044C16 16.9044 16 16.9044 16 16.9044V16.9044C16 16.9044 16 16.9044 16 16.9044C16 16.9044 16 16.9044 16 16.9044V16.9044C16 16.9044 16 16.9044 16 16.9044V16.9044C16 16.9044 16 16.9044 16 16.9044C16 16.9044 16 16.9044 16 16.9044V16.9044C16 16.9044 16 16.9044 16 16.9044C16 16.9045 16 16.9045 16 16.9045V16.9045C16 16.9045 16 16.9045 16 16.9045C16 16.9045 16 16.9045 16 16.9045C16 16.9045 16 16.9045 16 16.9045C16 16.9045 16 16.9045 16 16.9045V16.9045C16 16.9045 16 16.9045 16 16.9045C16 16.9045 16 16.9045 16 16.9045V16.9045C16 16.9045 16 16.9045 16 16.9045C16 16.9045 16 16.9045 16 16.9045V16.9045C16 16.9045 16 16.9045 16 16.9045V16.9045C16 16.9045 16 16.9045 16 16.9045C16 16.9045 16 16.9045 16 16.9045V16.9045C16 16.9045 16 16.9045 16 16.9045C16 16.9045 16 16.9045 16 16.9045V16.9045C16 16.9045 16 16.9045 16 16.9045V16.9045C16 16.9045 16 16.9045 16 16.9045C16 16.9045 16 16.9045 16 16.9045V16.9045C16 16.9045 16 16.9045 16 16.9045C16 16.9045 16 16.9045 16 16.9045V16.9045C16 16.9045 16 16.9045 16 16.9045C16 16.9045 16 16.9045 16 16.9045V16.9045C16 16.9045 16 16.9045 16 16.9045V16.9045C16 16.9045 16 16.9045 16 16.9045C16 16.9045 16 16.9045 16 16.9045V16.9045C16 16.9045 16 16.9045 16 16.9045C16 16.9045 16 16.9045 16 16.9045V16.9045C16 16.9045 16 16.9045 16 16.9045V16.9045C16 16.9045 16 16.9045 16 16.9045C16 16.9045 16 16.9045 16 16.9045V16.9045C16 16.9045 16 16.9045 16 16.9045C16 16.9045 16 16.9045 16 16.9045V16.9045C16 16.9045 16 16.9045 16 16.9045C16 16.9045 16 16.9045 16 16.9045C16 16.9045 16 16.9045 16 16.9045C16 16.9045 16 16.9045 16 16.9045V16.9045C16 16.9045 16 16.9045 16 16.9045C16 16.9045 16 16.9045 16 16.9045V16.9045C16 16.9045 16 16.9045 16 16.9045C16 16.9045 16 16.9045 16 16.9045V16.9045C16 16.9045 16 16.9045 16 16.9045V16.9045C16 16.9045 16 16.9045 16 16.9045C16 16.9045 16 16.9045 16 16.9045V16.9045C16 16.9045 16 16.9045 16 16.9045C16 16.9045 16 16.9045 16 16.9045V16.9045C16 16.9045 16 16.9045 16 16.9045V16.9045C16 16.9045 16 16.9045 16 16.9045C16 16.9045 16 16.9045 16 16.9045V16.9045C16 16.9045 16 16.9045 16 16.9045C16 16.9045 16 16.9045 16 16.9045V16.9045C16 16.9045 16 16.9045 16 16.9045C16 16.9045 16 16.9045 16 16.9045C16 16.9045 16 16.9045 16 16.9045C16 16.9045 16 16.9045 16 16.9045V16.9045C16 16.9045 16 16.9045 16 16.9045C16 16.9045 16 16.9045 16 16.9045V16.9045C16 16.9045 16 16.9045 16 16.9045C16 16.9045 16 16.9045 16 16.9045V16.9045C16 16.9045 16 16.9045 16 16.9045V16.9045C16 16.9045 16 16.9045 16 16.9045C16 16.9045 16 16.9045 16 16.9045V16.9045C16 16.9045 16 16.9045 16 16.9045C16 16.9045 16 16.9045 16 16.9045V16.9045C16 16.9045 16 16.9045 16 16.9045V16.9045C16 16.9045 16 16.9045 16 16.9045C16 16.9045 16 16.9045 16 16.9045V16.9045C16 16.9045 16 16.9045 16 16.9045C16 16.9045 16 16.9045 16 16.9045V16.9045C16 16.9045 16 16.9045 16 16.9045C16 16.9045 16 16.9045 16 16.9045C16 16.9045 16 16.9045 16 16.9045C16 16.9046 16 16.9046 16 16.9046V16.9046C16 16.9046 16 16.9046 16 16.9046C16 16.9046 16 16.9046 16 16.9046V16.9046C16 16.9046 16 16.9046 16 16.9046C16 16.9046 16 16.9046 16 16.9046V16.9046C16 16.9046 16 16.9046 16 16.9046V16.9046C16 16.9046 16 16.9046 16 16.9046C16 16.9046 16 16.9046 16 16.9046V16.9046C16 16.9046 16 16.9046 16 16.9046C16 16.9046 16 16.9046 16 16.9046V16.9046C16 16.9046 16 16.9046 16 16.9046V16.9046C16 16.9046 16 16.9046 16 16.9046C16 16.9046 16 16.9046 16 16.9046V16.9046C16 16.9046 16 16.9046 16 16.9046C16 16.9046 16 16.9046 16 16.9046V16.9046C16 16.9046 16 16.9046 16 16.9046V16.9046C16 16.9046 16 16.9046 16 16.9046C16 16.9046 16 16.9046 16 16.9046V16.9046C16 16.9046 16 16.9046 16 16.9046C16 16.9046 16 16.9046 16 16.9046V16.9046C16 16.9046 16 16.9046 16 16.9046C16 16.9046 16 16.9046 16 16.9046C16 16.9046 16 16.9046 16 16.9046C16 16.9046 16 16.9046 16 16.9046V16.9046C16 16.9046 16 16.9046 16 16.9046C16 16.9046 16 16.9046 16 16.9046V16.9046C16 16.9046 16 16.9046 16 16.9046C16 16.9046 16 16.9046 16 16.9046V16.9046C16 16.9046 16 16.9046 16 16.9046V16.9046C16 16.9046 16 16.9046 16 16.9046C16 16.9046 16 16.9046 16 16.9046V16.9046C16 16.9046 16 16.9046 16 16.9046C16 16.9046 16 16.9046 16 16.9046V16.9046C16 16.9046 16 16.9046 16 16.9046V16.9046C16 16.9046 16 16.9046 16 16.9046C16 16.9046 16 16.9046 16 16.9046V16.9046C16 16.9046 16 16.9046 16 16.9046C16 16.9046 16 16.9046 16 16.9046V16.9046C16 16.9046 16 16.9046 16 16.9046C16 16.9046 16 16.9046 16 16.9046C16 16.9046 16 16.9046 16 16.9046C16 16.9046 16 16.9046 16 16.9046V16.9046C16 16.9046 16 16.9046 16 16.9046C16 16.9046 16 16.9046 16 16.9046V16.9046C16 16.9046 16 16.9046 16 16.9046C16 16.9046 16 16.9046 16 16.9046V16.9046C16 16.9046 16 16.9046 16 16.9046V16.9046C16 16.9046 16 16.9046 16 16.9046C16 16.9046 16 16.9046 16 16.9046V16.9046C16 16.9046 16 16.9046 16 16.9046C16 16.9046 16 16.9046 16 16.9046V16.9046C16 16.9046 16 16.9046 16 16.9046V16.9046C16 16.9046 16 16.9046 16 16.9046C16 16.9046 16 16.9046 16 16.9046V16.9046C16 16.9046 16 16.9046 16 16.9046C16 16.9046 16 16.9046 16 16.9046V16.9046C16 16.9046 16 16.9046 16 16.9046C16 16.9046 16 16.9046 16 16.9046C16 16.9046 16 16.9046 16 16.9046C16 16.9046 16 16.9046 16 16.9046V16.9046C16 16.9046 16 16.9046 16 16.9046C16 16.9046 16 16.9046 16 16.9046V16.9046C16 16.9046 16 16.9046 16 16.9046C16 16.9046 16 16.9046 16 16.9046V16.9046C16 16.9046 16 16.9046 16 16.9046V16.9046C16 16.9046 16 16.9046 16 16.9046C16 16.9046 16 16.9046 16 16.9046V16.9046C16 16.9046 16 16.9046 16 16.9046C16 16.9046 16 16.9046 16 16.9046V16.9046C16 16.9046 16 16.9046 16 16.9047V16.9047C16 16.9047 16 16.9047 16 16.9047C16 16.9047 16 16.9047 16 16.9047V16.9047C16 16.9047 16 16.9047 16 16.9047C16 16.9047 16 16.9047 16 16.9047V16.9047C16 16.9047 16 16.9047 16 16.9047C16 16.9047 16 16.9047 16 16.9047V16.9047C16 16.9047 16 16.9047 16 16.9047V16.9047C16 16.9047 16 16.9047 16 16.9047C16 16.9047 16 16.9047 16 16.9047V16.9047C16 16.9047 16 16.9047 16 16.9047C16 16.9047 16 16.9047 16 16.9047V16.9047C16 16.9047 16 16.9047 16 16.9047V16.9047C16 16.9047 16 16.9047 16 16.9047C16 16.9047 16 16.9047 16 16.9047V16.9047C16 16.9047 16 16.9047 16 16.9047C16 16.9047 16 16.9047 16 16.9047V16.9047C16 16.9047 16 16.9047 16 16.9047C16 16.9047 16 16.9047 16 16.9047C16 16.9047 16 16.9047 16 16.9047C16 16.9047 16 16.9047 16 16.9047V16.9047C16 16.9047 16 16.9047 16 16.9047C16 16.9047 16 16.9047 16 16.9047V16.9047C16 16.9047 16 16.9047 16 16.9047C16 16.9047 16 16.9047 16 16.9047V16.9047C16 16.9047 16 16.9047 16 16.9047V16.9047C16 16.9047 16 16.9047 16 16.9047C16 16.9047 16 16.9047 16 16.9047V16.9047C16 16.9047 16 16.9047 16 16.9047C16 16.9047 16 16.9047 16 16.9047V16.9047C16 16.9047 16 16.9047 16 16.9047C16 16.9047 16 16.9047 16 16.9047V16.9047C16 16.9047 16 16.9047 16 16.9047V16.9047C16 16.9047 16 16.9047 16 16.9047C16 16.9047 16 16.9047 16 16.9047V16.9047C16 16.9047 16 16.9047 16 16.9047C16 16.9047 16 16.9047 16 16.9047V16.9047C16 16.9047 16 16.9047 16 16.9047V16.9047C16 16.9047 16 16.9047 16 16.9047C16 16.9047 16 16.9047 16 16.9047V16.9047C16 16.9047 16 16.9047 16 16.9047C16 16.9047 16 16.9047 16 16.9047V16.9047C16 16.9047 16 16.9047 16 16.9047C16 16.9047 16 16.9047 16 16.9047V16.9047C16 16.9047 16 16.9047 16 16.9047V16.9047C16 16.9047 16 16.9047 16 16.9047C16 16.9047 16 16.9047 16 16.9047V16.9047C16 16.9047 16 16.9047 16 16.9047C16 16.9047 16 16.9047 16 16.9047V16.9047C16 16.9047 16 16.9047 16 16.9047C16 16.9047 16 16.9047 16 16.9047C16 16.9047 16 16.9047 16 16.9047C16 16.9047 16 16.9047 16 16.9047V16.9047C16 16.9047 16 16.9047 16 16.9047C16 16.9047 16 16.9047 16 16.9047V16.9047C16 16.9047 16 16.9047 16 16.9047C16 16.9047 16 16.9047 16 16.9047V16.9047C16 16.9047 16 16.9047 16 16.9047V16.9047C16 16.9047 16 16.9047 16 16.9047C16 16.9047 16 16.9047 16 16.9047V16.9047C16 16.9047 16 16.9047 16 16.9047C16 16.9047 16 16.9047 16 16.9047V16.9047C16 16.9047 16 16.9047 16 16.9047C16 16.9047 16 16.9047 16 16.9047V16.9047C16 16.9047 16 16.9047 16 16.9047H20C20 16.9047 20 16.9047 20 16.9047V16.9047C20 16.9047 20 16.9047 20 16.9047C20 16.9047 20 16.9047 20 16.9047V16.9047C20 16.9047 20 16.9047 20 16.9047C20 16.9047 20 16.9047 20 16.9047V16.9047C20 16.9047 20 16.9047 20 16.9047C20 16.9047 20 16.9047 20 16.9047V16.9047C20 16.9047 20 16.9047 20 16.9047V16.9047C20 16.9047 20 16.9047 20 16.9047C20 16.9047 20 16.9047 20 16.9047V16.9047C20 16.9047 20 16.9047 20 16.9047C20 16.9047 20 16.9047 20 16.9047V16.9047C20 16.9047 20 16.9047 20 16.9047C20 16.9047 20 16.9047 20 16.9047C20 16.9047 20 16.9047 20 16.9047C20 16.9047 20 16.9047 20 16.9047V16.9047C20 16.9047 20 16.9047 20 16.9047C20 16.9047 20 16.9047 20 16.9047V16.9047C20 16.9047 20 16.9047 20 16.9047C20 16.9047 20 16.9047 20 16.9047V16.9047C20 16.9047 20 16.9047 20 16.9047V16.9047C20 16.9047 20 16.9047 20 16.9047C20 16.9047 20 16.9047 20 16.9047V16.9047C20 16.9047 20 16.9047 20 16.9047C20 16.9047 20 16.9047 20 16.9047V16.9047C20 16.9047 20 16.9047 20 16.9047C20 16.9047 20 16.9047 20 16.9047V16.9047C20 16.9047 20 16.9047 20 16.9047V16.9047C20 16.9047 20 16.9047 20 16.9047C20 16.9047 20 16.9047 20 16.9047V16.9047C20 16.9047 20 16.9047 20 16.9047C20 16.9047 20 16.9047 20 16.9047V16.9047C20 16.9047 20 16.9047 20 16.9047V16.9047C20 16.9047 20 16.9047 20 16.9047C20 16.9047 20 16.9047 20 16.9047V16.9047C20 16.9047 20 16.9047 20 16.9047C20 16.9047 20 16.9047 20 16.9047V16.9047C20 16.9047 20 16.9047 20 16.9047C20 16.9047 20 16.9047 20 16.9047V16.9047C20 16.9047 20 16.9047 20 16.9047V16.9047C20 16.9047 20 16.9047 20 16.9047C20 16.9047 20 16.9047 20 16.9047V16.9047C20 16.9047 20 16.9047 20 16.9047C20 16.9047 20 16.9047 20 16.9047V16.9047C20 16.9047 20 16.9047 20 16.9047C20 16.9047 20 16.9047 20 16.9047C20 16.9047 20 16.9047 20 16.9047C20 16.9047 20 16.9047 20 16.9047V16.9047C20 16.9047 20 16.9047 20 16.9047C20 16.9047 20 16.9047 20 16.9047V16.9047C20 16.9047 20 16.9047 20 16.9047C20 16.9047 20 16.9047 20 16.9047V16.9047C20 16.9047 20 16.9047 20 16.9047V16.9047C20 16.9047 20 16.9047 20 16.9047C20 16.9047 20 16.9047 20 16.9047V16.9047C20 16.9047 20 16.9047 20 16.9047C20 16.9047 20 16.9047 20 16.9047V16.9047C20 16.9047 20 16.9047 20 16.9047V16.9047C20 16.9047 20 16.9047 20 16.9047C20 16.9047 20 16.9047 20 16.9047V16.9047C20 16.9047 20 16.9047 20 16.9047C20 16.9047 20 16.9047 20 16.9047V16.9047C20 16.9047 20 16.9047 20 16.9047C20 16.9047 20 16.9047 20 16.9047V16.9047C20 16.9046 20 16.9046 20 16.9046V16.9046C20 16.9046 20 16.9046 20 16.9046C20 16.9046 20 16.9046 20 16.9046V16.9046C20 16.9046 20 16.9046 20 16.9046C20 16.9046 20 16.9046 20 16.9046V16.9046C20 16.9046 20 16.9046 20 16.9046V16.9046C20 16.9046 20 16.9046 20 16.9046C20 16.9046 20 16.9046 20 16.9046V16.9046C20 16.9046 20 16.9046 20 16.9046C20 16.9046 20 16.9046 20 16.9046V16.9046C20 16.9046 20 16.9046 20 16.9046C20 16.9046 20 16.9046 20 16.9046C20 16.9046 20 16.9046 20 16.9046C20 16.9046 20 16.9046 20 16.9046V16.9046C20 16.9046 20 16.9046 20 16.9046C20 16.9046 20 16.9046 20 16.9046V16.9046C20 16.9046 20 16.9046 20 16.9046C20 16.9046 20 16.9046 20 16.9046V16.9046C20 16.9046 20 16.9046 20 16.9046V16.9046C20 16.9046 20 16.9046 20 16.9046C20 16.9046 20 16.9046 20 16.9046V16.9046C20 16.9046 20 16.9046 20 16.9046C20 16.9046 20 16.9046 20 16.9046V16.9046C20 16.9046 20 16.9046 20 16.9046V16.9046C20 16.9046 20 16.9046 20 16.9046C20 16.9046 20 16.9046 20 16.9046V16.9046C20 16.9046 20 16.9046 20 16.9046C20 16.9046 20 16.9046 20 16.9046V16.9046C20 16.9046 20 16.9046 20 16.9046C20 16.9046 20 16.9046 20 16.9046C20 16.9046 20 16.9046 20 16.9046C20 16.9046 20 16.9046 20 16.9046V16.9046C20 16.9046 20 16.9046 20 16.9046C20 16.9046 20 16.9046 20 16.9046V16.9046C20 16.9046 20 16.9046 20 16.9046C20 16.9046 20 16.9046 20 16.9046V16.9046C20 16.9046 20 16.9046 20 16.9046V16.9046C20 16.9046 20 16.9046 20 16.9046C20 16.9046 20 16.9046 20 16.9046V16.9046C20 16.9046 20 16.9046 20 16.9046C20 16.9046 20 16.9046 20 16.9046V16.9046C20 16.9046 20 16.9046 20 16.9046V16.9046C20 16.9046 20 16.9046 20 16.9046C20 16.9046 20 16.9046 20 16.9046V16.9046C20 16.9046 20 16.9046 20 16.9046C20 16.9046 20 16.9046 20 16.9046V16.9046C20 16.9046 20 16.9046 20 16.9046C20 16.9046 20 16.9046 20 16.9046C20 16.9046 20 16.9046 20 16.9046C20 16.9046 20 16.9046 20 16.9046V16.9046C20 16.9046 20 16.9046 20 16.9046C20 16.9046 20 16.9046 20 16.9046V16.9046C20 16.9046 20 16.9046 20 16.9046C20 16.9046 20 16.9046 20 16.9046V16.9046C20 16.9046 20 16.9046 20 16.9046V16.9046C20 16.9046 20 16.9046 20 16.9046C20 16.9046 20 16.9046 20 16.9046V16.9046C20 16.9046 20 16.9046 20 16.9046C20 16.9046 20 16.9046 20 16.9046V16.9046C20 16.9046 20 16.9046 20 16.9046V16.9046C20 16.9046 20 16.9046 20 16.9046C20 16.9046 20 16.9046 20 16.9046V16.9046C20 16.9046 20 16.9046 20 16.9046C20 16.9046 20 16.9046 20 16.9046V16.9046C20 16.9046 20 16.9046 20 16.9046V16.9046C20 16.9046 20 16.9046 20 16.9046C20 16.9046 20 16.9046 20 16.9046V16.9046C20 16.9046 20 16.9046 20 16.9046C20 16.9046 20 16.9046 20 16.9046V16.9046C20 16.9046 20 16.9046 20 16.9045C20 16.9045 20 16.9045 20 16.9045C20 16.9045 20 16.9045 20 16.9045C20 16.9045 20 16.9045 20 16.9045V16.9045C20 16.9045 20 16.9045 20 16.9045C20 16.9045 20 16.9045 20 16.9045V16.9045C20 16.9045 20 16.9045 20 16.9045C20 16.9045 20 16.9045 20 16.9045V16.9045C20 16.9045 20 16.9045 20 16.9045V16.9045C20 16.9045 20 16.9045 20 16.9045C20 16.9045 20 16.9045 20 16.9045V16.9045C20 16.9045 20 16.9045 20 16.9045C20 16.9045 20 16.9045 20 16.9045V16.9045C20 16.9045 20 16.9045 20 16.9045V16.9045C20 16.9045 20 16.9045 20 16.9045C20 16.9045 20 16.9045 20 16.9045V16.9045C20 16.9045 20 16.9045 20 16.9045C20 16.9045 20 16.9045 20 16.9045V16.9045C20 16.9045 20 16.9045 20 16.9045C20 16.9045 20 16.9045 20 16.9045C20 16.9045 20 16.9045 20 16.9045C20 16.9045 20 16.9045 20 16.9045V16.9045C20 16.9045 20 16.9045 20 16.9045C20 16.9045 20 16.9045 20 16.9045V16.9045C20 16.9045 20 16.9045 20 16.9045C20 16.9045 20 16.9045 20 16.9045V16.9045C20 16.9045 20 16.9045 20 16.9045V16.9045C20 16.9045 20 16.9045 20 16.9045C20 16.9045 20 16.9045 20 16.9045V16.9045C20 16.9045 20 16.9045 20 16.9045C20 16.9045 20 16.9045 20 16.9045V16.9045C20 16.9045 20 16.9045 20 16.9045V16.9045C20 16.9045 20 16.9045 20 16.9045C20 16.9045 20 16.9045 20 16.9045V16.9045C20 16.9045 20 16.9045 20 16.9045C20 16.9045 20 16.9045 20 16.9045V16.9045C20 16.9045 20 16.9045 20 16.9045C20 16.9045 20 16.9045 20 16.9045C20 16.9045 20 16.9045 20 16.9045C20 16.9045 20 16.9045 20 16.9045V16.9045C20 16.9045 20 16.9045 20 16.9045C20 16.9045 20 16.9045 20 16.9045V16.9045C20 16.9045 20 16.9045 20 16.9045C20 16.9045 20 16.9045 20 16.9045V16.9045C20 16.9045 20 16.9045 20 16.9045V16.9045C20 16.9045 20 16.9045 20 16.9045C20 16.9045 20 16.9045 20 16.9045V16.9045C20 16.9045 20 16.9045 20 16.9045C20 16.9045 20 16.9045 20 16.9045V16.9045C20 16.9045 20 16.9045 20 16.9045V16.9045C20 16.9045 20 16.9045 20 16.9045C20 16.9045 20 16.9045 20 16.9045V16.9045C20 16.9045 20 16.9045 20 16.9045C20 16.9045 20 16.9045 20 16.9045V16.9045C20 16.9045 20 16.9045 20 16.9045C20 16.9045 20 16.9045 20 16.9045V16.9045C20 16.9045 20 16.9045 20 16.9045V16.9045C20 16.9045 20 16.9045 20 16.9045C20 16.9045 20 16.9045 20 16.9045V16.9045C20 16.9045 20 16.9045 20 16.9045C20 16.9045 20 16.9045 20 16.9045V16.9045C20 16.9045 20 16.9045 20 16.9045V16.9045C20 16.9045 20 16.9045 20 16.9045C20 16.9045 20 16.9045 20 16.9045V16.9045C20 16.9045 20 16.9045 20 16.9045C20 16.9045 20 16.9045 20 16.9045V16.9045C20 16.9045 20 16.9045 20 16.9045C20 16.9045 20 16.9045 20 16.9045C20 16.9045 20 16.9045 20 16.9045C20 16.9045 20 16.9045 20 16.9045V16.9045C20 16.9045 20 16.9045 20 16.9044C20 16.9044 20 16.9044 20 16.9044V16.9044C20 16.9044 20 16.9044 20 16.9044C20 16.9044 20 16.9044 20 16.9044V16.9044C20 16.9044 20 16.9044 20 16.9044V16.9044C20 16.9044 20 16.9044 20 16.9044C20 16.9044 20 16.9044 20 16.9044V16.9044C20 16.9044 20 16.9044 20 16.9044C20 16.9044 20 16.9044 20 16.9044V16.9044C20 16.9044 20 16.9044 20 16.9044C20 16.9044 20 16.9044 20 16.9044C20 16.9044 20 16.9044 20 16.9044C20 16.9044 20 16.9044 20 16.9044V16.9044C20 16.9044 20 16.9044 20 16.9044C20 16.9044 20 16.9044 20 16.9044V16.9044C20 16.9044 20 16.9044 20 16.9044C20 16.9044 20 16.9044 20 16.9044V16.9044C20 16.9044 20 16.9044 20 16.9044V16.9044C20 16.9044 20 16.9044 20 16.9044C20 16.9044 20 16.9044 20 16.9044V16.9044C20 16.9044 20 16.9044 20 16.9044C20 16.9044 20 16.9044 20 16.9044V16.9044C20 16.9044 20 16.9044 20 16.9044C20 16.9044 20 16.9044 20 16.9044V16.9044C20 16.9044 20 16.9044 20 16.9044V16.9044C20 16.9044 20 16.9044 20 16.9044C20 16.9044 20 16.9044 20 16.9044V16.9044C20 16.9044 20 16.9044 20 16.9044C20 16.9044 20 16.9044 20 16.9044V16.9044C20 16.9044 20 16.9044 20 16.9044C20 16.9044 20 16.9044 20 16.9044C20 16.9044 20 16.9044 20 16.9044C20 16.9044 20 16.9044 20 16.9044V16.9044C20 16.9044 20 16.9044 20 16.9044C20 16.9044 20 16.9044 20 16.9044V16.9044C20 16.9044 20 16.9044 20 16.9044C20 16.9044 20 16.9044 20 16.9044V16.9044C20 16.9044 20 16.9044 20 16.9044V16.9044C20 16.9044 20 16.9044 20 16.9044C20 16.9044 20 16.9044 20 16.9044V16.9044C20 16.9044 20 16.9044 20 16.9044C20 16.9044 20 16.9044 20 16.9044V16.9044C20 16.9044 20 16.9044 20 16.9044C20 16.9044 20 16.9044 20 16.9044V16.9044H16ZM10.9082 10.0296C13.8305 10.8721 16 13.6185 16 16.9044H20C20 11.8258 16.6412 7.51955 12.0163 6.18614L10.9082 10.0296ZM10.3489 10.1187C10.6217 10.0694 10.7584 10.0469 10.8722 10.0393C10.9675 10.0329 10.9614 10.0449 10.9082 10.0296L12.0163 6.18614C11.0145 5.89733 10.0469 6.1085 9.63796 6.18236L10.3489 10.1187ZM9 10.2693C9.54473 10.2693 10.0525 10.1722 10.3489 10.1187L9.63796 6.18236C9.28198 6.24666 9.12678 6.2693 9 6.2693V10.2693ZM7.62322 10.0853C7.89759 10.1454 8.42652 10.2693 9 10.2693V6.2693C8.93267 6.2693 8.82861 6.2545 8.47945 6.17799L7.62322 10.0853ZM7.25593 9.98449C7.16497 10.0083 7.12408 9.99563 7.18932 10.0023C7.22214 10.0056 7.27109 10.0127 7.34626 10.027C7.42419 10.0418 7.50738 10.0599 7.62322 10.0853L8.47945 6.17799C8.13492 6.10249 7.21269 5.86133 6.24407 6.11459L7.25593 9.98449ZM2 16.9044C2 13.5568 4.25151 10.7701 7.25593 9.98449L6.24407 6.11459C1.48496 7.35895 -2 11.7316 -2 16.9044H2ZM2 16.9047C2 16.9047 2 16.9047 2 16.9047V16.9047C2 16.9047 2 16.9047 2 16.9047C2 16.9047 2 16.9047 2 16.9047V16.9047C2 16.9047 2 16.9047 2 16.9047C2 16.9047 2 16.9047 2 16.9047V16.9047C2 16.9047 2 16.9047 2 16.9047C2 16.9047 2 16.9047 2 16.9047V16.9047C2 16.9047 2 16.9047 2 16.9047V16.9047C2 16.9047 2 16.9047 2 16.9047C2 16.9047 2 16.9047 2 16.9047V16.9047C2 16.9047 2 16.9047 2 16.9047C2 16.9047 2 16.9047 2 16.9047V16.9047C2 16.9047 2 16.9047 2 16.9047C2 16.9047 2 16.9047 2 16.9047C2 16.9047 2 16.9047 2 16.9047C2 16.9047 2 16.9047 2 16.9047V16.9047C2 16.9047 2 16.9047 2 16.9047C2 16.9047 2 16.9047 2 16.9047V16.9047C2 16.9047 2 16.9047 2 16.9047C2 16.9047 2 16.9047 2 16.9047V16.9047C2 16.9047 2 16.9047 2 16.9047V16.9047C2 16.9047 2 16.9047 2 16.9047C2 16.9047 2 16.9047 2 16.9047V16.9047C2 16.9047 2 16.9047 2 16.9047C2 16.9047 2 16.9047 2 16.9047V16.9047C2 16.9047 2 16.9047 2 16.9047C2 16.9047 2 16.9047 2 16.9047V16.9047C2 16.9047 2 16.9047 2 16.9047V16.9047C2 16.9047 2 16.9047 2 16.9047C2 16.9047 2 16.9047 2 16.9047V16.9047C2 16.9047 2 16.9047 2 16.9047C2 16.9047 2 16.9047 2 16.9047V16.9047C2 16.9047 2 16.9047 2 16.9047V16.9047C2 16.9047 2 16.9047 2 16.9047C2 16.9047 2 16.9047 2 16.9047V16.9047C2 16.9047 2 16.9047 2 16.9047C2 16.9047 2 16.9047 2 16.9047V16.9047C2 16.9047 2 16.9047 2 16.9047C2 16.9047 2 16.9047 2 16.9047V16.9047C2 16.9047 2 16.9047 2 16.9047V16.9047C2 16.9047 2 16.9047 2 16.9047C2 16.9047 2 16.9047 2 16.9047V16.9047C2 16.9047 2 16.9047 2 16.9047C2 16.9047 2 16.9047 2 16.9047V16.9047C2 16.9047 2 16.9047 2 16.9047C2 16.9047 2 16.9047 2 16.9047C2 16.9047 2 16.9047 2 16.9047C2 16.9047 2 16.9047 2 16.9047V16.9047C2 16.9047 2 16.9047 2 16.9047C2 16.9047 2 16.9047 2 16.9047V16.9047C2 16.9047 2 16.9047 2 16.9047C2 16.9047 2 16.9047 2 16.9047V16.9047C2 16.9047 2 16.9047 2 16.9047V16.9047C2 16.9047 2 16.9047 2 16.9047C2 16.9047 2 16.9047 2 16.9047V16.9047C2 16.9047 2 16.9047 2 16.9047C2 16.9047 2 16.9047 2 16.9047V16.9047C2 16.9047 2 16.9047 2 16.9047V16.9047C2 16.9047 2 16.9047 2 16.9047C2 16.9047 2 16.9047 2 16.9047V16.9047C2 16.9047 2 16.9047 2 16.9047C2 16.9047 2 16.9047 2 16.9047V16.9047C2 16.9047 2 16.9047 2 16.9047C2 16.9047 2 16.9047 2 16.9047V16.9047C2 16.9046 2 16.9046 2 16.9046V16.9046C2 16.9046 2 16.9046 2 16.9046C2 16.9046 2 16.9046 2 16.9046V16.9046C2 16.9046 2 16.9046 2 16.9046C2 16.9046 2 16.9046 2 16.9046V16.9046C2 16.9046 2 16.9046 2 16.9046V16.9046C2 16.9046 2 16.9046 2 16.9046C2 16.9046 2 16.9046 2 16.9046V16.9046C2 16.9046 2 16.9046 2 16.9046C2 16.9046 2 16.9046 2 16.9046V16.9046C2 16.9046 2 16.9046 2 16.9046C2 16.9046 2 16.9046 2 16.9046C2 16.9046 2 16.9046 2 16.9046C2 16.9046 2 16.9046 2 16.9046V16.9046C2 16.9046 2 16.9046 2 16.9046C2 16.9046 2 16.9046 2 16.9046V16.9046C2 16.9046 2 16.9046 2 16.9046C2 16.9046 2 16.9046 2 16.9046V16.9046C2 16.9046 2 16.9046 2 16.9046V16.9046C2 16.9046 2 16.9046 2 16.9046C2 16.9046 2 16.9046 2 16.9046V16.9046C2 16.9046 2 16.9046 2 16.9046C2 16.9046 2 16.9046 2 16.9046V16.9046C2 16.9046 2 16.9046 2 16.9046V16.9046C2 16.9046 2 16.9046 2 16.9046C2 16.9046 2 16.9046 2 16.9046V16.9046C2 16.9046 2 16.9046 2 16.9046C2 16.9046 2 16.9046 2 16.9046V16.9046C2 16.9046 2 16.9046 2 16.9046C2 16.9046 2 16.9046 2 16.9046C2 16.9046 2 16.9046 2 16.9046C2 16.9046 2 16.9046 2 16.9046V16.9046C2 16.9046 2 16.9046 2 16.9046C2 16.9046 2 16.9046 2 16.9046V16.9046C2 16.9046 2 16.9046 2 16.9046C2 16.9046 2 16.9046 2 16.9046V16.9046C2 16.9046 2 16.9046 2 16.9046V16.9046C2 16.9046 2 16.9046 2 16.9046C2 16.9046 2 16.9046 2 16.9046V16.9046C2 16.9046 2 16.9046 2 16.9046C2 16.9046 2 16.9046 2 16.9046V16.9046C2 16.9046 2 16.9046 2 16.9046V16.9046C2 16.9046 2 16.9046 2 16.9046C2 16.9046 2 16.9046 2 16.9046V16.9046C2 16.9046 2 16.9046 2 16.9046C2 16.9046 2 16.9046 2 16.9046V16.9046C2 16.9046 2 16.9046 2 16.9046C2 16.9046 2 16.9046 2 16.9046C2 16.9046 2 16.9046 2 16.9046C2 16.9046 2 16.9046 2 16.9046V16.9046C2 16.9046 2 16.9046 2 16.9046C2 16.9046 2 16.9046 2 16.9046V16.9046C2 16.9046 2 16.9046 2 16.9046C2 16.9046 2 16.9046 2 16.9046V16.9046C2 16.9046 2 16.9046 2 16.9046V16.9046C2 16.9046 2 16.9046 2 16.9046C2 16.9046 2 16.9046 2 16.9046V16.9046C2 16.9046 2 16.9046 2 16.9046C2 16.9046 2 16.9046 2 16.9046V16.9046C2 16.9046 2 16.9046 2 16.9046V16.9046C2 16.9046 2 16.9046 2 16.9046C2 16.9046 2 16.9046 2 16.9046V16.9046C2 16.9046 2 16.9046 2 16.9046C2 16.9046 2 16.9046 2 16.9046V16.9046C2 16.9046 2 16.9046 2 16.9046V16.9046C2 16.9046 2 16.9046 2 16.9046C2 16.9046 2 16.9046 2 16.9046V16.9046C2 16.9046 2 16.9046 2 16.9046C2 16.9046 2 16.9046 2 16.9046V16.9046C2 16.9046 2 16.9046 2 16.9045C2 16.9045 2 16.9045 2 16.9045C2 16.9045 2 16.9045 2 16.9045C2 16.9045 2 16.9045 2 16.9045V16.9045C2 16.9045 2 16.9045 2 16.9045C2 16.9045 2 16.9045 2 16.9045V16.9045C2 16.9045 2 16.9045 2 16.9045C2 16.9045 2 16.9045 2 16.9045V16.9045C2 16.9045 2 16.9045 2 16.9045V16.9045C2 16.9045 2 16.9045 2 16.9045C2 16.9045 2 16.9045 2 16.9045V16.9045C2 16.9045 2 16.9045 2 16.9045C2 16.9045 2 16.9045 2 16.9045V16.9045C2 16.9045 2 16.9045 2 16.9045V16.9045C2 16.9045 2 16.9045 2 16.9045C2 16.9045 2 16.9045 2 16.9045V16.9045C2 16.9045 2 16.9045 2 16.9045C2 16.9045 2 16.9045 2 16.9045V16.9045C2 16.9045 2 16.9045 2 16.9045C2 16.9045 2 16.9045 2 16.9045C2 16.9045 2 16.9045 2 16.9045C2 16.9045 2 16.9045 2 16.9045V16.9045C2 16.9045 2 16.9045 2 16.9045C2 16.9045 2 16.9045 2 16.9045V16.9045C2 16.9045 2 16.9045 2 16.9045C2 16.9045 2 16.9045 2 16.9045V16.9045C2 16.9045 2 16.9045 2 16.9045V16.9045C2 16.9045 2 16.9045 2 16.9045C2 16.9045 2 16.9045 2 16.9045V16.9045C2 16.9045 2 16.9045 2 16.9045C2 16.9045 2 16.9045 2 16.9045V16.9045C2 16.9045 2 16.9045 2 16.9045V16.9045C2 16.9045 2 16.9045 2 16.9045C2 16.9045 2 16.9045 2 16.9045V16.9045C2 16.9045 2 16.9045 2 16.9045C2 16.9045 2 16.9045 2 16.9045V16.9045C2 16.9045 2 16.9045 2 16.9045C2 16.9045 2 16.9045 2 16.9045C2 16.9045 2 16.9045 2 16.9045C2 16.9045 2 16.9045 2 16.9045V16.9045C2 16.9045 2 16.9045 2 16.9045C2 16.9045 2 16.9045 2 16.9045V16.9045C2 16.9045 2 16.9045 2 16.9045C2 16.9045 2 16.9045 2 16.9045V16.9045C2 16.9045 2 16.9045 2 16.9045V16.9045C2 16.9045 2 16.9045 2 16.9045C2 16.9045 2 16.9045 2 16.9045V16.9045C2 16.9045 2 16.9045 2 16.9045C2 16.9045 2 16.9045 2 16.9045V16.9045C2 16.9045 2 16.9045 2 16.9045V16.9045C2 16.9045 2 16.9045 2 16.9045C2 16.9045 2 16.9045 2 16.9045V16.9045C2 16.9045 2 16.9045 2 16.9045C2 16.9045 2 16.9045 2 16.9045V16.9045C2 16.9045 2 16.9045 2 16.9045C2 16.9045 2 16.9045 2 16.9045V16.9045C2 16.9045 2 16.9045 2 16.9045V16.9045C2 16.9045 2 16.9045 2 16.9045C2 16.9045 2 16.9045 2 16.9045V16.9045C2 16.9045 2 16.9045 2 16.9045C2 16.9045 2 16.9045 2 16.9045V16.9045C2 16.9045 2 16.9045 2 16.9045V16.9045C2 16.9045 2 16.9045 2 16.9045C2 16.9045 2 16.9045 2 16.9045V16.9045C2 16.9045 2 16.9045 2 16.9045C2 16.9045 2 16.9045 2 16.9045V16.9045C2 16.9045 2 16.9045 2 16.9045C2 16.9045 2 16.9045 2 16.9045C2 16.9045 2 16.9045 2 16.9045C2 16.9045 2 16.9045 2 16.9045V16.9045C2 16.9045 2 16.9045 2 16.9044C2 16.9044 2 16.9044 2 16.9044V16.9044C2 16.9044 2 16.9044 2 16.9044C2 16.9044 2 16.9044 2 16.9044V16.9044C2 16.9044 2 16.9044 2 16.9044V16.9044C2 16.9044 2 16.9044 2 16.9044C2 16.9044 2 16.9044 2 16.9044V16.9044C2 16.9044 2 16.9044 2 16.9044C2 16.9044 2 16.9044 2 16.9044V16.9044C2 16.9044 2 16.9044 2 16.9044C2 16.9044 2 16.9044 2 16.9044C2 16.9044 2 16.9044 2 16.9044C2 16.9044 2 16.9044 2 16.9044V16.9044C2 16.9044 2 16.9044 2 16.9044C2 16.9044 2 16.9044 2 16.9044V16.9044C2 16.9044 2 16.9044 2 16.9044C2 16.9044 2 16.9044 2 16.9044V16.9044C2 16.9044 2 16.9044 2 16.9044V16.9044C2 16.9044 2 16.9044 2 16.9044C2 16.9044 2 16.9044 2 16.9044V16.9044C2 16.9044 2 16.9044 2 16.9044C2 16.9044 2 16.9044 2 16.9044V16.9044C2 16.9044 2 16.9044 2 16.9044C2 16.9044 2 16.9044 2 16.9044V16.9044C2 16.9044 2 16.9044 2 16.9044V16.9044C2 16.9044 2 16.9044 2 16.9044C2 16.9044 2 16.9044 2 16.9044V16.9044C2 16.9044 2 16.9044 2 16.9044C2 16.9044 2 16.9044 2 16.9044V16.9044C2 16.9044 2 16.9044 2 16.9044C2 16.9044 2 16.9044 2 16.9044C2 16.9044 2 16.9044 2 16.9044C2 16.9044 2 16.9044 2 16.9044V16.9044C2 16.9044 2 16.9044 2 16.9044C2 16.9044 2 16.9044 2 16.9044V16.9044C2 16.9044 2 16.9044 2 16.9044C2 16.9044 2 16.9044 2 16.9044V16.9044C2 16.9044 2 16.9044 2 16.9044V16.9044C2 16.9044 2 16.9044 2 16.9044C2 16.9044 2 16.9044 2 16.9044V16.9044C2 16.9044 2 16.9044 2 16.9044C2 16.9044 2 16.9044 2 16.9044V16.9044C2 16.9044 2 16.9044 2 16.9044C2 16.9044 2 16.9044 2 16.9044V16.9044H-2V16.9044C-2 16.9044 -2 16.9044 -2 16.9044C-2 16.9044 -2 16.9044 -2 16.9044V16.9044C-2 16.9044 -2 16.9044 -2 16.9044C-2 16.9044 -2 16.9044 -2 16.9044V16.9044C-2 16.9044 -2 16.9044 -2 16.9044C-2 16.9044 -2 16.9044 -2 16.9044V16.9044C-2 16.9044 -2 16.9044 -2 16.9044V16.9044C-2 16.9044 -2 16.9044 -2 16.9044C-2 16.9044 -2 16.9044 -2 16.9044V16.9044C-2 16.9044 -2 16.9044 -2 16.9044C-2 16.9044 -2 16.9044 -2 16.9044V16.9044C-2 16.9044 -2 16.9044 -2 16.9044C-2 16.9044 -2 16.9044 -2 16.9044C-2 16.9044 -2 16.9044 -2 16.9044C-2 16.9044 -2 16.9044 -2 16.9044V16.9044C-2 16.9044 -2 16.9044 -2 16.9044C-2 16.9044 -2 16.9044 -2 16.9044V16.9044C-2 16.9044 -2 16.9044 -2 16.9044C-2 16.9044 -2 16.9044 -2 16.9044V16.9044C-2 16.9044 -2 16.9044 -2 16.9044V16.9044C-2 16.9044 -2 16.9044 -2 16.9044C-2 16.9044 -2 16.9044 -2 16.9044V16.9044C-2 16.9044 -2 16.9044 -2 16.9044C-2 16.9044 -2 16.9044 -2 16.9044V16.9044C-2 16.9044 -2 16.9044 -2 16.9044C-2 16.9044 -2 16.9044 -2 16.9044V16.9044C-2 16.9044 -2 16.9044 -2 16.9044V16.9044C-2 16.9044 -2 16.9044 -2 16.9044C-2 16.9044 -2 16.9044 -2 16.9044V16.9044C-2 16.9044 -2 16.9044 -2 16.9044C-2 16.9044 -2 16.9044 -2 16.9044V16.9044C-2 16.9044 -2 16.9044 -2 16.9044C-2 16.9044 -2 16.9044 -2 16.9044C-2 16.9044 -2 16.9044 -2 16.9044C-2 16.9044 -2 16.9044 -2 16.9044V16.9044C-2 16.9044 -2 16.9044 -2 16.9044C-2 16.9044 -2 16.9044 -2 16.9044V16.9044C-2 16.9044 -2 16.9044 -2 16.9044C-2 16.9044 -2 16.9044 -2 16.9044V16.9044C-2 16.9044 -2 16.9044 -2 16.9044V16.9044C-2 16.9044 -2 16.9044 -2 16.9044C-2 16.9044 -2 16.9044 -2 16.9044V16.9044C-2 16.9044 -2 16.9044 -2 16.9044C-2 16.9045 -2 16.9045 -2 16.9045V16.9045C-2 16.9045 -2 16.9045 -2 16.9045C-2 16.9045 -2 16.9045 -2 16.9045C-2 16.9045 -2 16.9045 -2 16.9045C-2 16.9045 -2 16.9045 -2 16.9045V16.9045C-2 16.9045 -2 16.9045 -2 16.9045C-2 16.9045 -2 16.9045 -2 16.9045V16.9045C-2 16.9045 -2 16.9045 -2 16.9045C-2 16.9045 -2 16.9045 -2 16.9045V16.9045C-2 16.9045 -2 16.9045 -2 16.9045V16.9045C-2 16.9045 -2 16.9045 -2 16.9045C-2 16.9045 -2 16.9045 -2 16.9045V16.9045C-2 16.9045 -2 16.9045 -2 16.9045C-2 16.9045 -2 16.9045 -2 16.9045V16.9045C-2 16.9045 -2 16.9045 -2 16.9045V16.9045C-2 16.9045 -2 16.9045 -2 16.9045C-2 16.9045 -2 16.9045 -2 16.9045V16.9045C-2 16.9045 -2 16.9045 -2 16.9045C-2 16.9045 -2 16.9045 -2 16.9045V16.9045C-2 16.9045 -2 16.9045 -2 16.9045C-2 16.9045 -2 16.9045 -2 16.9045V16.9045C-2 16.9045 -2 16.9045 -2 16.9045V16.9045C-2 16.9045 -2 16.9045 -2 16.9045C-2 16.9045 -2 16.9045 -2 16.9045V16.9045C-2 16.9045 -2 16.9045 -2 16.9045C-2 16.9045 -2 16.9045 -2 16.9045V16.9045C-2 16.9045 -2 16.9045 -2 16.9045V16.9045C-2 16.9045 -2 16.9045 -2 16.9045C-2 16.9045 -2 16.9045 -2 16.9045V16.9045C-2 16.9045 -2 16.9045 -2 16.9045C-2 16.9045 -2 16.9045 -2 16.9045V16.9045C-2 16.9045 -2 16.9045 -2 16.9045C-2 16.9045 -2 16.9045 -2 16.9045C-2 16.9045 -2 16.9045 -2 16.9045C-2 16.9045 -2 16.9045 -2 16.9045V16.9045C-2 16.9045 -2 16.9045 -2 16.9045C-2 16.9045 -2 16.9045 -2 16.9045V16.9045C-2 16.9045 -2 16.9045 -2 16.9045C-2 16.9045 -2 16.9045 -2 16.9045V16.9045C-2 16.9045 -2 16.9045 -2 16.9045V16.9045C-2 16.9045 -2 16.9045 -2 16.9045C-2 16.9045 -2 16.9045 -2 16.9045V16.9045C-2 16.9045 -2 16.9045 -2 16.9045C-2 16.9045 -2 16.9045 -2 16.9045V16.9045C-2 16.9045 -2 16.9045 -2 16.9045V16.9045C-2 16.9045 -2 16.9045 -2 16.9045C-2 16.9045 -2 16.9045 -2 16.9045V16.9045C-2 16.9045 -2 16.9045 -2 16.9045C-2 16.9045 -2 16.9045 -2 16.9045V16.9045C-2 16.9045 -2 16.9045 -2 16.9045C-2 16.9045 -2 16.9045 -2 16.9045C-2 16.9045 -2 16.9045 -2 16.9045C-2 16.9045 -2 16.9045 -2 16.9045V16.9045C-2 16.9045 -2 16.9045 -2 16.9045C-2 16.9045 -2 16.9045 -2 16.9045V16.9045C-2 16.9045 -2 16.9045 -2 16.9045C-2 16.9045 -2 16.9045 -2 16.9045V16.9045C-2 16.9045 -2 16.9045 -2 16.9045V16.9045C-2 16.9045 -2 16.9045 -2 16.9045C-2 16.9045 -2 16.9045 -2 16.9045V16.9045C-2 16.9045 -2 16.9045 -2 16.9045C-2 16.9045 -2 16.9045 -2 16.9045V16.9045C-2 16.9045 -2 16.9045 -2 16.9045V16.9045C-2 16.9045 -2 16.9045 -2 16.9045C-2 16.9045 -2 16.9045 -2 16.9045V16.9045C-2 16.9045 -2 16.9045 -2 16.9045C-2 16.9045 -2 16.9045 -2 16.9045V16.9045C-2 16.9045 -2 16.9045 -2 16.9045C-2 16.9045 -2 16.9045 -2 16.9045C-2 16.9045 -2 16.9045 -2 16.9045C-2 16.9046 -2 16.9046 -2 16.9046V16.9046C-2 16.9046 -2 16.9046 -2 16.9046C-2 16.9046 -2 16.9046 -2 16.9046V16.9046C-2 16.9046 -2 16.9046 -2 16.9046C-2 16.9046 -2 16.9046 -2 16.9046V16.9046C-2 16.9046 -2 16.9046 -2 16.9046V16.9046C-2 16.9046 -2 16.9046 -2 16.9046C-2 16.9046 -2 16.9046 -2 16.9046V16.9046C-2 16.9046 -2 16.9046 -2 16.9046C-2 16.9046 -2 16.9046 -2 16.9046V16.9046C-2 16.9046 -2 16.9046 -2 16.9046V16.9046C-2 16.9046 -2 16.9046 -2 16.9046C-2 16.9046 -2 16.9046 -2 16.9046V16.9046C-2 16.9046 -2 16.9046 -2 16.9046C-2 16.9046 -2 16.9046 -2 16.9046V16.9046C-2 16.9046 -2 16.9046 -2 16.9046V16.9046C-2 16.9046 -2 16.9046 -2 16.9046C-2 16.9046 -2 16.9046 -2 16.9046V16.9046C-2 16.9046 -2 16.9046 -2 16.9046C-2 16.9046 -2 16.9046 -2 16.9046V16.9046C-2 16.9046 -2 16.9046 -2 16.9046C-2 16.9046 -2 16.9046 -2 16.9046C-2 16.9046 -2 16.9046 -2 16.9046C-2 16.9046 -2 16.9046 -2 16.9046V16.9046C-2 16.9046 -2 16.9046 -2 16.9046C-2 16.9046 -2 16.9046 -2 16.9046V16.9046C-2 16.9046 -2 16.9046 -2 16.9046C-2 16.9046 -2 16.9046 -2 16.9046V16.9046C-2 16.9046 -2 16.9046 -2 16.9046V16.9046C-2 16.9046 -2 16.9046 -2 16.9046C-2 16.9046 -2 16.9046 -2 16.9046V16.9046C-2 16.9046 -2 16.9046 -2 16.9046C-2 16.9046 -2 16.9046 -2 16.9046V16.9046C-2 16.9046 -2 16.9046 -2 16.9046V16.9046C-2 16.9046 -2 16.9046 -2 16.9046C-2 16.9046 -2 16.9046 -2 16.9046V16.9046C-2 16.9046 -2 16.9046 -2 16.9046C-2 16.9046 -2 16.9046 -2 16.9046V16.9046C-2 16.9046 -2 16.9046 -2 16.9046C-2 16.9046 -2 16.9046 -2 16.9046C-2 16.9046 -2 16.9046 -2 16.9046C-2 16.9046 -2 16.9046 -2 16.9046V16.9046C-2 16.9046 -2 16.9046 -2 16.9046C-2 16.9046 -2 16.9046 -2 16.9046V16.9046C-2 16.9046 -2 16.9046 -2 16.9046C-2 16.9046 -2 16.9046 -2 16.9046V16.9046C-2 16.9046 -2 16.9046 -2 16.9046V16.9046C-2 16.9046 -2 16.9046 -2 16.9046C-2 16.9046 -2 16.9046 -2 16.9046V16.9046C-2 16.9046 -2 16.9046 -2 16.9046C-2 16.9046 -2 16.9046 -2 16.9046V16.9046C-2 16.9046 -2 16.9046 -2 16.9046V16.9046C-2 16.9046 -2 16.9046 -2 16.9046C-2 16.9046 -2 16.9046 -2 16.9046V16.9046C-2 16.9046 -2 16.9046 -2 16.9046C-2 16.9046 -2 16.9046 -2 16.9046V16.9046C-2 16.9046 -2 16.9046 -2 16.9046C-2 16.9046 -2 16.9046 -2 16.9046C-2 16.9046 -2 16.9046 -2 16.9046C-2 16.9046 -2 16.9046 -2 16.9046V16.9046C-2 16.9046 -2 16.9046 -2 16.9046C-2 16.9046 -2 16.9046 -2 16.9046V16.9046C-2 16.9046 -2 16.9046 -2 16.9046C-2 16.9046 -2 16.9046 -2 16.9046V16.9046C-2 16.9046 -2 16.9046 -2 16.9046V16.9046C-2 16.9046 -2 16.9046 -2 16.9046C-2 16.9046 -2 16.9046 -2 16.9046V16.9046C-2 16.9046 -2 16.9046 -2 16.9046C-2 16.9046 -2 16.9046 -2 16.9046V16.9046C-2 16.9046 -2 16.9046 -2 16.9047V16.9047C-2 16.9047 -2 16.9047 -2 16.9047C-2 16.9047 -2 16.9047 -2 16.9047V16.9047C-2 16.9047 -2 16.9047 -2 16.9047C-2 16.9047 -2 16.9047 -2 16.9047V16.9047C-2 16.9047 -2 16.9047 -2 16.9047C-2 16.9047 -2 16.9047 -2 16.9047V16.9047C-2 16.9047 -2 16.9047 -2 16.9047V16.9047C-2 16.9047 -2 16.9047 -2 16.9047C-2 16.9047 -2 16.9047 -2 16.9047V16.9047C-2 16.9047 -2 16.9047 -2 16.9047C-2 16.9047 -2 16.9047 -2 16.9047V16.9047C-2 16.9047 -2 16.9047 -2 16.9047V16.9047C-2 16.9047 -2 16.9047 -2 16.9047C-2 16.9047 -2 16.9047 -2 16.9047V16.9047C-2 16.9047 -2 16.9047 -2 16.9047C-2 16.9047 -2 16.9047 -2 16.9047V16.9047C-2 16.9047 -2 16.9047 -2 16.9047C-2 16.9047 -2 16.9047 -2 16.9047C-2 16.9047 -2 16.9047 -2 16.9047C-2 16.9047 -2 16.9047 -2 16.9047V16.9047C-2 16.9047 -2 16.9047 -2 16.9047C-2 16.9047 -2 16.9047 -2 16.9047V16.9047C-2 16.9047 -2 16.9047 -2 16.9047C-2 16.9047 -2 16.9047 -2 16.9047V16.9047C-2 16.9047 -2 16.9047 -2 16.9047V16.9047C-2 16.9047 -2 16.9047 -2 16.9047C-2 16.9047 -2 16.9047 -2 16.9047V16.9047C-2 16.9047 -2 16.9047 -2 16.9047C-2 16.9047 -2 16.9047 -2 16.9047V16.9047C-2 16.9047 -2 16.9047 -2 16.9047C-2 16.9047 -2 16.9047 -2 16.9047V16.9047C-2 16.9047 -2 16.9047 -2 16.9047V16.9047C-2 16.9047 -2 16.9047 -2 16.9047C-2 16.9047 -2 16.9047 -2 16.9047V16.9047C-2 16.9047 -2 16.9047 -2 16.9047C-2 16.9047 -2 16.9047 -2 16.9047V16.9047C-2 16.9047 -2 16.9047 -2 16.9047V16.9047C-2 16.9047 -2 16.9047 -2 16.9047C-2 16.9047 -2 16.9047 -2 16.9047V16.9047C-2 16.9047 -2 16.9047 -2 16.9047C-2 16.9047 -2 16.9047 -2 16.9047V16.9047C-2 16.9047 -2 16.9047 -2 16.9047C-2 16.9047 -2 16.9047 -2 16.9047V16.9047C-2 16.9047 -2 16.9047 -2 16.9047V16.9047C-2 16.9047 -2 16.9047 -2 16.9047C-2 16.9047 -2 16.9047 -2 16.9047V16.9047C-2 16.9047 -2 16.9047 -2 16.9047C-2 16.9047 -2 16.9047 -2 16.9047V16.9047C-2 16.9047 -2 16.9047 -2 16.9047C-2 16.9047 -2 16.9047 -2 16.9047C-2 16.9047 -2 16.9047 -2 16.9047C-2 16.9047 -2 16.9047 -2 16.9047V16.9047C-2 16.9047 -2 16.9047 -2 16.9047C-2 16.9047 -2 16.9047 -2 16.9047V16.9047C-2 16.9047 -2 16.9047 -2 16.9047C-2 16.9047 -2 16.9047 -2 16.9047V16.9047C-2 16.9047 -2 16.9047 -2 16.9047V16.9047C-2 16.9047 -2 16.9047 -2 16.9047C-2 16.9047 -2 16.9047 -2 16.9047V16.9047C-2 16.9047 -2 16.9047 -2 16.9047C-2 16.9047 -2 16.9047 -2 16.9047V16.9047C-2 16.9047 -2 16.9047 -2 16.9047C-2 16.9047 -2 16.9047 -2 16.9047V16.9047C-2 16.9047 -2 16.9047 -2 16.9047H2ZM2 20V16.9047H-2V20H2ZM3 21C2.44772 21 2 20.5523 2 20H-2C-2 22.7614 0.238577 25 3 25V21ZM15 21H3V25H15V21ZM16 20C16 20.5523 15.5523 21 15 21V25C17.7614 25 20 22.7614 20 20H16ZM16 16.9047V20H20V16.9047H16Z"
        fill="#FCA262" mask="url(#path-1-inside-1_147_8)" />
    <circle cx="9" cy="5" r="4" stroke="#FCA262" stroke-width="2" />
    <circle cx="17" cy="21" r="7" fill="url(#paint0_linear_147_8)" />
    <rect x="13" y="20" width="8" height="2" rx="1" fill="#F9EEE1" />
    <rect x="16" y="25" width="8" height="2" rx="1" transform="rotate(-90 16 25)" fill="#F9EEE1" />
    <defs>
        <linearGradient id="paint0_linear_147_8" x1="10" y1="21" x2="24" y2="21" gradientUnits="userSpaceOnUse">
            <stop stop-color="#F98F5C" />
            <stop offset="0.479167" stop-color="#FA9268" />
            <stop offset="0.911458" stop-color="#FCA262" />
        </linearGradient>
    </defs>
</svg>