<?xml version="1.0" encoding="UTF-8" standalone="no"?><!DOCTYPE svg PUBLIC "-//W3C//DTD SVG 1.1//EN" "http://www.w3.org/Graphics/SVG/1.1/DTD/svg11.dtd"><svg width="100%" height="100%" viewBox="0 0 134 134" version="1.1" xmlns="http://www.w3.org/2000/svg" xmlns:xlink="http://www.w3.org/1999/xlink" xml:space="preserve" xmlns:serif="http://www.serif.com/" style="fill-rule:evenodd;clip-rule:evenodd;stroke-linejoin:round;stroke-miterlimit:2;"><path d="M58.81,80.264c-6.181,5.376 -13.975,8.582 -22.446,8.582c-20.083,0 -36.364,-18.023 -36.364,-40.256c-0,-22.233 16.281,-40.257 36.364,-40.257c12.648,0 23.788,7.149 30.303,17.996c6.514,-10.847 17.654,-17.996 30.303,-17.996c20.083,0 36.363,18.024 36.363,40.257c0,22.233 -16.28,40.256 -36.363,40.256l-0.406,0c-11.221,0.002 -31.084,0.004 -37.754,-8.582Z" style="fill:#f9eee1;"/><path d="M12.263,78.93c-6.033,-6.033 -4.382,-16.204 3.249,-20.019l45.565,-22.783c3.518,-1.759 7.661,-1.759 11.18,0l45.565,22.783c7.631,3.815 9.281,13.986 3.248,20.019l-45.564,45.565c-4.882,4.881 -12.796,4.881 -17.678,-0l-45.565,-45.565Z" style="fill:#f9eee1;fill-rule:nonzero;"/></svg>