<svg width="24" height="22" viewBox="0 0 24 22" fill="none" xmlns="http://www.w3.org/2000/svg">
<path fill-rule="evenodd" clip-rule="evenodd" d="M21 6C22.6569 6 24 4.65685 24 3C24 1.34315 22.6569 0 21 0C19.6938 0 18.5825 0.834808 18.1707 2H1C0.447715 2 0 2.44772 0 3C0 3.55228 0.447716 4 1 4H18.1707C18.5825 5.16519 19.6938 6 21 6ZM1 10C0.447715 10 0 10.4477 0 11C0 11.5523 0.447716 12 1 12H4.17071C4.58254 13.1652 5.69378 14 7 14C8.30622 14 9.41746 13.1652 9.82929 12H23C23.5523 12 24 11.5523 24 11C24 10.4477 23.5523 10 23 10H9.82929C9.41746 8.83481 8.30622 8 7 8C5.69378 8 4.58254 8.83481 4.17071 10H1ZM1 18C0.447715 18 0 18.4477 0 19C0 19.5523 0.447716 20 1 20H14.1707C14.5825 21.1652 15.6938 22 17 22C18.3062 22 19.4175 21.1652 19.8293 20H23C23.5523 20 24 19.5523 24 19C24 18.4477 23.5523 18 23 18H19.8293C19.4175 16.8348 18.3062 16 17 16C15.6938 16 14.5825 16.8348 14.1707 18H1Z" fill="url(#paint0_linear_119_54)"/>
<defs>
<linearGradient id="paint0_linear_119_54" x1="0" y1="11" x2="24" y2="11" gradientUnits="userSpaceOnUse">
<stop stop-color="#F98F5C"/>
<stop offset="0.479167" stop-color="#FA9268"/>
<stop offset="0.911458" stop-color="#FCA262"/>
</linearGradient>
</defs>
</svg>
