<?xml version="1.0" encoding="UTF-8"?>
<!DOCTYPE svg PUBLIC '-//W3C//DTD SVG 1.1//EN' 'http://www.w3.org/Graphics/SVG/1.1/DTD/svg11.dtd'>
<svg clip-rule="evenodd" fill-rule="evenodd" stroke-linejoin="round" stroke-miterlimit="2" version="1.1"
    viewBox="0 0 134 134" xml:space="preserve" xmlns="http://www.w3.org/2000/svg"
    xmlnsXlink="http://www.w3.org/1999/xlink">
    <path
        d="m58.81 80.264c-6.181 5.376-13.975 8.582-22.446 8.582-20.083 0-36.364-18.023-36.364-40.256s16.281-40.257 36.364-40.257c12.648 0 23.788 7.149 30.303 17.996 6.514-10.847 17.654-17.996 30.303-17.996 20.083 0 36.363 18.024 36.363 40.257s-16.28 40.256-36.363 40.256h-0.406c-11.221 2e-3 -31.084 4e-3 -37.754-8.582z"
        fill="#f9eee1" />
    <path
        d="m12.263 78.93c-6.033-6.033-4.382-16.204 3.249-20.019l45.565-22.783c3.518-1.759 7.661-1.759 11.18 0l45.565 22.783c7.631 3.815 9.281 13.986 3.248 20.019l-45.564 45.565c-4.882 4.881-12.796 4.881-17.678-0l-45.565-45.565z"
        fill="#f9eee1" fill-rule="nonzero" />
</svg>