<svg viewBox="0 0 146 121" fill="none" xmlns="http://www.w3.org/2000/svg">
<g filter="url(#filter0_d_470_577)">
<path d="M18.2529 89.7559C20.1029 89.7559 21.0278 90.3679 21.0278 91.6095C21.0278 92.7636 20.5915 94.7397 19.7189 97.5201C18.8463 100.301 17.7992 102.976 16.595 105.547C14.8672 109.184 12.9999 112.454 11.0104 115.339C10.2774 116.459 9.40477 117.001 8.42746 117.001C7.17091 117.001 5.96672 116.249 4.79744 114.745C6.87423 113.188 8.79395 111.003 10.5741 108.187C7.24072 98.9365 4.72763 93.4806 3.01733 91.8368C4.62292 90.5777 6.00163 89.9482 7.17091 89.9482C7.74683 89.9482 8.18313 90.0706 8.51472 90.3154C8.8463 90.5603 9.14299 90.9625 9.38732 91.5046C9.78871 92.3789 10.3821 94.1451 11.1674 96.8381C11.9528 99.5311 12.581 101.892 13.0173 103.92C13.6805 101.892 14.2913 99.671 14.8498 97.2403C15.4083 94.8096 15.6875 93.0784 15.6875 92.0117C15.6875 91.4171 15.6526 90.8575 15.5828 90.298C16.403 89.9482 17.2931 89.7559 18.2529 89.7559Z" fill="#FCA262"/>
<path d="M40.801 107.382C39.5968 107.697 38.5497 107.872 37.6945 107.872C36.9092 107.872 36.2285 107.697 35.6701 107.33C35.1116 106.98 34.8149 106.438 34.7626 105.756C32.965 107.347 31.0104 108.134 28.9162 108.134C25.4432 108.134 23.698 106.385 23.698 102.905C23.698 102.835 23.7155 101.926 23.7504 100.195C23.7853 98.4636 23.8027 97.1696 23.8027 96.2952C23.8027 93.7246 23.6107 91.8011 23.2094 90.507C24.1692 90.1923 25.164 90.0174 26.2111 90.0174C28.3402 90.0174 29.3874 90.7693 29.3874 92.2732C29.3874 93.0951 29.3525 94.6165 29.2827 96.8373C29.2128 99.0582 29.1779 100.405 29.1779 100.842C29.1779 102.031 29.3699 102.94 29.7539 103.587C30.1378 104.234 30.609 104.549 31.1849 104.549C32.4415 104.549 33.6107 103.972 34.6928 102.8C34.6753 101.839 34.6579 100.335 34.6579 98.3062C34.6579 95.4384 34.5706 92.8328 34.3961 90.4721C35.3908 90.1573 36.3333 89.9824 37.2408 89.9824C38.2355 89.9824 38.986 90.1223 39.5444 90.4196C40.0854 90.7169 40.3647 91.3289 40.3647 92.2732C40.3647 92.518 40.3298 93.27 40.2774 94.5291C40.2076 95.7881 40.1727 96.7849 40.1552 97.5018V100.212C40.1378 103.36 40.3647 105.756 40.801 107.382Z" fill="#FCA262"/>
<path d="M43.698 90.506C44.7102 90.1913 45.6701 90.0164 46.5776 90.0164C48.3751 90.0164 49.4048 90.7508 49.6491 92.2023C51.15 90.5935 52.8603 89.7891 54.7626 89.7891C57.1361 89.7891 58.7416 90.7334 59.6142 92.6394C61.15 90.7334 62.965 89.7891 65.0942 89.7891C66.6648 89.7891 67.9738 90.2787 68.986 91.2405C69.9982 92.2023 70.5043 93.5837 70.5043 95.3499C70.5043 95.4024 70.4868 96.2942 70.4519 98.0254C70.417 99.7567 70.3996 101.068 70.3996 101.96C70.3996 104.093 70.609 105.895 71.0279 107.381C69.9633 107.696 68.8987 107.871 67.7992 107.871C65.8272 107.871 64.8324 107.119 64.8324 105.615C64.8324 104.723 64.8673 103.079 64.9371 100.701C65.0069 98.3227 65.0418 96.8713 65.0418 96.3817C65.0418 95.3674 64.8673 94.6155 64.5183 94.1083C64.1692 93.6012 63.7155 93.3564 63.157 93.3564C62.2495 93.3564 61.2373 93.9685 60.1553 95.1751C60.2076 98.3402 60.2251 100.631 60.2251 102.03C60.2251 104.198 60.2949 106.104 60.417 107.748C59.5968 107.818 58.8813 107.853 58.2355 107.853C55.7748 107.853 54.5357 107.259 54.5357 106.069C54.5357 105.947 54.5706 105.038 54.623 103.359C54.6928 101.68 54.7102 100.019 54.7102 98.3927V96.3117C54.7102 95.2975 54.5357 94.5455 54.1692 94.0734C53.8027 93.5837 53.3664 93.3564 52.8254 93.3564C51.9179 93.3564 50.9057 93.9685 49.8237 95.1751C49.876 98.3402 49.8935 100.631 49.8935 102.03C49.8935 104.198 49.9633 106.104 50.0854 107.748C49.2652 107.818 48.5497 107.853 47.9039 107.853C45.4432 107.853 44.2041 107.259 44.2041 106.069C44.2041 105.965 44.239 105.108 44.2914 103.481C44.3612 101.855 44.3786 100.159 44.3786 98.3927C44.3961 94.3357 44.1518 91.7126 43.698 90.506Z" fill="#F2594B"/>
<path d="M77.1884 96.1037C75.0243 95.7015 73.9248 94.7747 73.9248 93.3233C73.9248 92.3265 74.6404 91.4872 76.054 90.8052C77.4676 90.1057 79.1779 89.7734 81.1849 89.7734C83.7678 89.7734 85.6875 90.2631 86.9266 91.2598C88.1657 92.2566 88.7765 93.9004 88.7765 96.1912C88.7765 96.3835 88.7591 97.118 88.7416 98.3771C88.7242 99.6361 88.7067 100.58 88.7067 101.192C88.7067 104.043 88.9336 106.159 89.4048 107.575C88.3228 107.873 87.3629 108.012 86.5252 108.012C84.7451 108.012 83.7154 107.295 83.4187 105.861C82.8254 106.561 82.0749 107.103 81.15 107.505C80.225 107.907 79.3001 108.117 78.3577 108.117C76.9964 108.117 75.862 107.68 74.9371 106.806C74.0121 105.931 73.5409 104.62 73.5409 102.889C73.5409 101.507 73.8201 100.493 74.3786 99.846C74.9371 99.1989 75.6875 98.7268 76.6474 98.3945C78.5147 97.8 80.7486 97.4328 83.314 97.2754C83.314 95.7715 83.1395 94.7048 82.8079 94.1102C82.4763 93.4982 81.7783 93.2009 80.7137 93.2009C80.1029 93.2009 79.4397 93.4632 78.7416 93.9878C78.0261 94.5124 77.52 95.2119 77.1884 96.1037ZM83.2617 99.9684C82.5287 100.091 81.9528 100.196 81.5514 100.301C81.15 100.406 80.7311 100.563 80.2774 100.773C79.8236 100.983 79.492 101.262 79.3175 101.595C79.1255 101.927 79.0383 102.347 79.0383 102.836C79.0383 103.448 79.1779 103.92 79.4746 104.235C79.7713 104.55 80.1378 104.707 80.5915 104.707C81.6212 104.707 82.4938 104.393 83.1744 103.781C83.157 103.553 83.1395 103.186 83.1395 102.661C83.157 101.735 83.1919 100.86 83.2617 99.9684Z" fill="#F2594B"/>
<path d="M94.3263 101.034V93.6198C93.0349 93.6373 91.9528 93.7247 91.0279 93.8821C90.8359 93.34 90.7312 92.8154 90.7312 92.3258C90.7312 90.8743 91.726 90.1399 93.733 90.1399H94.2565C94.2042 88.636 94.1343 87.3769 94.0296 86.3627C94.815 86.0479 95.7225 85.873 96.7347 85.873C97.3979 85.873 97.9214 85.908 98.3054 85.9605C98.6893 86.0304 99.0558 86.2228 99.4223 86.5725C99.7713 86.9223 99.9633 87.4294 99.9633 88.0939C99.9633 88.4961 99.9284 89.1781 99.8586 90.1748C102.424 90.1748 104.466 90.0699 105.967 89.8776C106.141 90.2273 106.229 90.7519 106.229 91.4689C106.229 92.7804 105.496 93.4799 104.047 93.5499C103.105 93.6023 101.691 93.6198 99.7888 93.6198C99.719 96.068 99.6841 98.5162 99.6841 100.964C99.6841 101.559 99.7015 102.014 99.719 102.311C99.7364 102.626 99.8063 102.993 99.9284 103.448C100.033 103.885 100.243 104.217 100.522 104.409C100.801 104.602 101.168 104.707 101.621 104.707C102.86 104.707 103.838 104.339 104.588 103.587C105.6 104.304 106.106 105.039 106.106 105.773C106.106 106.473 105.688 107.032 104.832 107.47C103.977 107.907 102.965 108.117 101.778 108.117C99.0907 108.117 97.1884 107.522 96.0541 106.333C94.8848 105.161 94.3263 103.378 94.3263 101.034Z" fill="#F2594B"/>
<path d="M116.979 104.602C117.747 104.602 118.462 104.41 119.143 104.025C119.824 103.641 120.277 103.116 120.539 102.452C121.656 102.854 122.372 103.238 122.721 103.606C123.07 103.973 123.244 104.428 123.244 104.935C123.244 105.949 122.651 106.736 121.464 107.295C120.277 107.855 118.742 108.135 116.839 108.135C114.082 108.135 111.848 107.365 110.173 105.809C108.497 104.27 107.66 102.102 107.66 99.3388C107.66 97.7126 107.939 96.2611 108.497 95.0021C109.056 93.743 109.771 92.7462 110.661 91.9943C111.551 91.2598 112.511 90.7003 113.541 90.333C114.571 89.9658 115.618 89.7734 116.682 89.7734C118.235 89.7734 119.719 90.0882 121.15 90.7352C122.564 91.3822 123.279 92.2741 123.279 93.4107C123.279 94.9146 122.075 95.8239 119.649 96.1212C119.422 95.2819 119.038 94.6173 118.462 94.1102C117.886 93.6206 117.258 93.3758 116.578 93.3758C115.67 93.3758 114.867 93.8479 114.204 94.7747C113.541 95.7015 113.209 97.0655 113.209 98.8667C113.209 102.679 114.466 104.602 116.979 104.602Z" fill="#F2594B"/>
<path d="M128.689 80.1895C129.632 80.1895 130.347 80.3468 130.871 80.6791C131.394 80.9939 131.656 81.6234 131.656 82.5677C131.656 82.7076 131.621 83.8093 131.534 85.8378C131.447 87.8663 131.412 89.3876 131.412 90.4019V92.0282C132.965 90.5418 134.728 89.8073 136.7 89.8073C138.375 89.8073 139.754 90.2969 140.853 91.2587C141.935 92.2205 142.476 93.602 142.476 95.3682C142.476 95.4206 142.459 96.3125 142.424 98.0437C142.389 99.7749 142.372 101.086 142.372 101.978C142.372 104.112 142.581 105.913 143 107.399C141.935 107.714 140.871 107.889 139.771 107.889C137.799 107.889 136.804 107.137 136.804 105.633C136.804 104.741 136.839 103.097 136.909 100.719C136.979 98.341 137.014 96.8896 137.014 96.3999C137.014 95.3857 136.804 94.6337 136.403 94.1266C136.002 93.6195 135.478 93.3747 134.832 93.3747C133.803 93.3747 132.651 93.9867 131.394 95.1933C131.447 98.3585 131.464 100.649 131.464 102.048C131.464 104.217 131.534 106.123 131.656 107.766C130.836 107.836 130.12 107.871 129.475 107.871C127.014 107.871 125.775 107.277 125.775 106.088C125.775 105.983 125.81 105.126 125.862 103.517C125.932 101.891 125.949 100.212 125.949 98.4459V89.3876C125.949 85.8552 125.862 82.9524 125.688 80.7141C126.63 80.3468 127.625 80.1895 128.689 80.1895Z" fill="#F2594B"/>
<path d="M103.524 81.0414C125.307 81.0414 142.965 63.3474 142.965 41.5207C142.965 19.694 125.307 2 103.524 2C81.7406 2 64.082 19.694 64.082 41.5207C64.082 63.3474 81.7406 81.0414 103.524 81.0414Z" fill="#F2594B"/>
<path d="M127.45 32.2354C127.136 31.6234 126.56 31.1687 125.897 30.9938C125.216 30.819 124.483 30.9239 123.89 31.3086L120.103 33.7043C118.236 33.2322 116.194 33.2147 114.867 34.159C113.855 34.771 112.477 34.771 111.028 34.7536C106.49 34.4738 105.059 35.7678 103.768 37.6389C103.593 36.8345 103.314 36.1001 102.948 35.453C102.756 35.9951 102.494 36.5197 102.18 37.0444C102.442 37.7613 102.599 38.5657 102.616 39.3876C102.337 39.7898 102.058 40.192 101.709 40.6117C101.586 40.7516 101.447 40.909 101.29 41.0664C101.534 39.9647 101.482 39.0554 101.272 38.2859L100.086 39.6499C100.086 40.0521 100.033 40.4893 99.9111 40.9964C99.8064 41.3986 99.6667 41.8008 99.5097 42.203C99.4573 42.3429 99.405 42.5003 99.3526 42.6577C98.7243 43.1124 98.0611 43.5845 97.4329 44.0042C97.7645 43.3222 98.1135 42.5353 98.3229 41.6959C98.5149 40.909 98.5847 40.0696 98.3753 39.2302L100.33 36.9919L100.365 36.9394C100.435 36.852 100.47 36.7995 100.539 36.7121C101.709 35.0683 102.093 33.1622 101.674 31.7633C101.552 31.3786 101.621 30.9589 101.866 30.6441L114.798 13.0347C115.216 12.4576 114.955 11.5483 114.239 11.0411C113.908 10.7963 113.524 10.6914 113.175 10.6914C112.773 10.6914 112.389 10.8488 112.162 11.1636L99.754 29.1577C99.5271 29.49 99.1606 29.6823 98.7592 29.6998C97.2933 29.7698 95.6353 30.749 94.4486 32.3928C94.3788 32.4802 94.3264 32.5852 94.2566 32.6726L94.1694 32.83L93.1571 34.5787C92.6685 34.4213 92.1449 34.2814 91.5865 34.159L92.5463 32.4802C92.3718 32.5152 92.2147 32.5502 92.0577 32.6027C91.7086 32.7251 91.2723 32.9524 90.6964 33.5644C90.6789 33.5819 90.6615 33.5994 90.644 33.6169C90.5568 33.7218 90.4695 33.8267 90.3823 33.9317C90.3125 34.0191 90.2427 34.1065 90.1903 34.194C89.9983 34.4913 89.8413 35.2607 90.9233 35.4356C90.9582 35.4356 90.9756 35.453 91.0105 35.453C93.7854 35.9951 95.3735 37.0094 96.5254 38.5308C97.7296 40.1221 96.9268 41.9582 96.0542 43.7594C95.2688 45.3857 95.4433 46.5923 96.2636 47.4317C96.857 48.0437 98.7592 48.2011 99.6318 47.3267C101.045 45.9103 103.332 45.8928 104.745 47.3092C106.159 48.7257 106.159 51.0165 104.763 52.4329C104.047 53.1499 104.047 54.2691 104.379 55.091C104.431 55.1959 104.641 55.6331 104.204 55.9478C103.698 56.3151 103.332 55.9653 103.227 55.8254C102.529 54.9686 102.634 52.6603 103.803 51.4712C104.675 50.5793 104.675 49.1629 103.785 48.271C102.913 47.3967 101.482 47.3967 100.592 48.2885C99.1781 49.705 96.0716 49.4951 95.042 48.1486C93.9774 46.7497 93.6807 45.2633 95.0769 42.7976C95.6877 41.7134 96.0018 39.8947 95.2514 38.898C93.6981 36.9045 91.0978 36.887 89.946 36.6072C88.672 36.2924 88.2531 35.7328 88.3753 35.0858C88.3753 35.0858 88.3578 34.7536 88.9687 33.7743C89.1083 33.5295 89.2653 33.3196 89.4224 33.1448C89.4922 33.0573 89.5795 32.9524 89.6493 32.8824C89.7714 32.76 89.8762 32.6376 89.9983 32.5502C90.0332 32.5152 90.0681 32.4977 90.103 32.4628L90.1205 32.4453C90.1205 32.4453 90.1205 32.4453 90.1379 32.4453C91.0629 31.7108 91.7784 31.5359 92.4591 31.4135C92.7034 31.3611 92.9826 31.3611 93.2793 31.3611C93.6283 30.8889 94.0123 30.4692 94.4311 30.0845C93.6458 29.9796 92.8604 29.9446 92.2147 30.067C91.3596 30.2244 90.3474 30.4867 89.1257 31.5185C88.9686 31.6409 88.8116 31.7982 88.6545 31.9731C88.5149 32.113 87.6074 33.1448 87.2235 34.2464C86.8744 35.0858 86.9791 35.7503 87.1536 36.205C87.5027 37.0444 88.3229 37.6389 89.6144 37.9712C89.8064 38.0236 89.9983 38.0586 90.2077 38.0936C90.3125 38.1111 90.4172 38.1286 90.5393 38.146C91.7435 38.3384 93.2444 38.5832 94.1694 39.7723C94.3439 39.9997 94.3788 40.5243 94.2566 41.1014C94.1868 41.4511 94.0646 41.8183 93.8727 42.1506C92.6161 44.3889 92.5463 45.8928 93.1397 47.4317C91.8133 48.9006 91.028 50.5618 91.028 52.2581L88.1484 54.0942C87.555 54.4789 87.1362 55.091 87.014 55.773C86.8919 56.455 87.0664 57.1719 87.4852 57.714C92.7732 64.7088 101.342 68.0838 109.702 66.8772C109.737 66.9297 109.771 66.9821 109.806 67.0171C111.394 68.6084 116.037 67.7516 120.155 65.1285C121.639 64.1842 122.93 63.0825 123.96 61.9809C125.792 59.9698 126.752 57.9064 126.281 56.5599C126.264 56.5074 126.229 56.4375 126.194 56.385C127.834 53.8844 129.004 51.0864 129.614 48.1311C130.749 42.6752 129.981 37.0618 127.45 32.2354ZM95.7749 35.8378C95.4259 35.5929 95.0594 35.3656 94.658 35.1558L96.0542 33.1797C96.1763 33.0049 96.3858 32.8999 96.5777 32.8999C96.6999 32.8999 96.8395 32.9349 96.9617 33.0223C97.2584 33.2322 97.3282 33.6344 97.1187 33.9317L95.7749 35.8378ZM96.7697 36.6771L98.1659 34.7011C98.288 34.5262 98.4975 34.4213 98.6894 34.4213C98.8116 34.4213 98.9512 34.4563 99.0734 34.5437C99.37 34.7536 99.4399 35.1558 99.2304 35.453C99.1955 35.488 99.1606 35.523 99.1257 35.558L97.6248 37.6564L97.6074 37.6389C97.3631 37.2892 97.0838 36.9744 96.7697 36.6771ZM98.6894 46.295C98.3927 46.5923 97.5725 46.7846 97.206 46.4874C97.014 46.33 96.9093 46.0852 96.9093 45.7879C97.8343 45.0884 98.7767 44.4589 99.5969 43.8643C101.831 42.2555 102.773 41.7309 104.082 39.6499C104.379 39.1778 104.693 38.6357 105.059 37.9712C105.286 37.569 105.566 37.2542 105.915 37.0094C108.288 35.2782 113.157 36.9394 115.566 35.3306C116.473 34.7885 117.485 34.6661 118.445 34.7536L102.581 44.8261C101.203 44.7387 99.754 45.2283 98.6894 46.295ZM93.7854 48.6033C93.8203 48.6557 93.8552 48.7257 93.8901 48.7956C94.117 49.1804 94.4311 49.5126 94.8151 49.7924L92.4416 51.3138C92.5987 50.3345 93.1048 49.4427 93.7854 48.6033ZM124.815 55.9653C124.745 56.1227 124.693 56.2626 124.675 56.4375C124.623 57.067 125.094 57.4167 124.92 58.1162V58.1337C124.92 58.1512 124.902 58.1687 124.902 58.1862C124.85 58.361 124.745 58.5534 124.641 58.7633C123.855 60.2496 122.11 62.2257 119.492 63.8869C117.66 65.0586 115.862 65.7581 114.379 66.1078H114.361C114.361 66.1078 114.274 66.1253 114.134 66.1603C113.698 66.2477 113.279 66.3176 112.895 66.3526C112.564 66.3876 112.232 66.4051 112.005 66.3526C112.005 66.3526 112.005 66.3526 111.988 66.3526C111.29 66.2302 111.168 65.6531 110.574 65.4258C110.4 65.3559 110.243 65.3384 110.068 65.3559C102.023 66.7024 93.7156 63.5372 88.6196 56.8047C88.4276 56.5599 88.3578 56.2451 88.4102 55.9304C88.4625 55.6156 88.6545 55.3358 88.9337 55.1609L96.3334 50.4569C96.5603 50.5094 96.7872 50.5618 97.0315 50.5793C98.7592 50.7892 100.557 50.2471 101.604 49.1804C101.953 48.8306 102.511 48.8306 102.86 49.1804C103.209 49.5301 103.209 50.0897 102.86 50.4394C101.237 52.0832 101.237 55.1085 102.093 56.4899C102.494 57.137 103.401 57.6266 104.71 56.9446C106.438 56.0353 105.583 54.3041 105.583 54.3041C105.443 53.9893 105.513 53.5871 105.775 53.3248C107.712 51.3662 107.695 48.2011 105.757 46.26C105.356 45.8578 104.902 45.5431 104.414 45.3157L124.641 32.4453C124.92 32.2704 125.234 32.2179 125.548 32.3054C125.862 32.3928 126.107 32.5852 126.246 32.865C130.138 40.3494 129.422 49.2678 124.815 55.9653Z" fill="#F9EEE1"/>
<path d="M42.4416 81.0414C64.2245 81.0414 81.8831 63.3474 81.8831 41.5207C81.8831 19.694 64.2245 2 42.4416 2C20.6586 2 3 19.694 3 41.5207C3 63.3474 20.6586 81.0414 42.4416 81.0414Z" fill="#FCA262"/>
<path d="M59.6667 36.9408C63.9773 35.944 62.0925 31.8695 59.9808 30.2083C57.9913 28.8093 56.9965 28.7568 55.0245 28.9142L55.8971 30.2083C57.2583 30.1208 58.8988 30.7329 59.9459 32.1144C60.8534 33.4084 61.8657 35.0347 59.3526 35.6118C58.2007 35.909 55.6004 35.909 54.0471 37.9026C52.1449 41.1377 57.1362 43.7432 54.2566 47.1532C53.2269 48.4997 50.1204 48.7095 48.7068 47.2931C47.8342 46.4013 46.4032 46.4013 45.5131 47.2756C44.6405 48.15 44.6231 49.5839 45.4957 50.4757C46.6649 51.6649 46.7697 53.9731 46.0716 54.83C45.9494 54.9699 45.6004 55.3196 45.0943 54.9524C44.658 54.6376 44.8674 54.2005 44.9197 54.0955C45.2513 53.2737 45.2513 52.1545 44.5358 51.4375C43.1222 50.0211 43.1396 47.7128 44.5533 46.3138C45.9669 44.8974 48.2705 44.9149 49.6667 46.3313C50.5393 47.2231 52.4416 47.0483 53.0349 46.4362C53.8552 45.5969 54.0297 44.3902 53.2444 42.764C52.3718 40.9628 51.569 39.1267 52.7732 37.5353C53.9075 35.979 55.6353 34.9822 58.3752 34.4226C60.7836 33.9155 57.555 31.2575 56.6824 31.3624L57.8866 33.1461C57.3107 33.2685 56.7871 33.4084 56.281 33.5658L40.6266 10.308C40.3473 9.90582 39.911 9.69598 39.4747 9.69598C38.3752 9.66101 37.6597 11.0075 38.3229 11.9168L54.2915 34.4401C53.7679 34.7374 53.2793 35.0871 52.843 35.4719L38.1135 15.9563C37.6423 15.3443 36.7522 15.2219 36.1414 15.7115C35.5306 16.1837 35.4084 17.0755 35.8971 17.6876L51.3944 37.2206C50.2077 39.1616 51.2199 41.7147 52.0576 43.341C53.1396 45.352 51.8656 46.4712 50.4171 45.1072C51.5515 42.5541 48.5847 39.9136 49.5794 37.4479L48.6021 36.2063C47.014 39.3015 49.1431 41.4699 49.3526 44.3902C49.0035 44.2154 48.6196 44.0755 48.2356 43.988C48.3752 42.9213 47.4503 41.7497 47.1187 40.5431C46.5951 38.672 46.8744 36.4861 47.7295 35.1046L46.8395 33.968C45.5306 35.7691 45.1466 38.5146 45.8098 40.9103C46.0716 41.8896 46.8046 42.9738 46.6649 43.8831C46.2461 43.9181 45.8447 44.023 45.4433 44.1629C44.6929 43.7257 43.8203 43.2186 42.8953 42.6765C43.1222 42.2918 42.1449 34.8074 42.1274 34.1953C41.9529 32.1668 39.9983 30.593 37.9913 30.8378C37.7121 30.8728 35.4957 31.0826 35.2862 31.1526C34.5009 29.7011 32.8255 28.8792 31.1501 29.2465C28.8115 29.7186 26.5079 30.0509 25.9843 32.7963L23.925 31.5897C22.7208 30.8553 20.993 31.3624 20.3997 32.6739C16.6475 40.5956 17.6073 49.7763 22.5288 56.6661C21.185 62.7516 36.089 70.4284 39.4398 66.5113C47.8168 67.4556 56.5079 63.4861 61.2897 56.5088C61.6911 55.9317 61.8307 55.2322 61.6737 54.5502C61.5166 53.8682 61.0803 53.2737 60.4869 52.9064L54.0122 49.1292C53.9075 49.1817 53.7854 49.2342 53.6632 49.2866C55.8098 48.4297 56.8744 45.7018 56.4555 43.5334C56.9267 44.0405 57.6248 45.2996 58.3578 45.2821C58.7941 45.2996 59.3526 44.7924 59.3002 44.3553C59.37 43.5858 55.6527 39.284 55.2688 38.5846C55.6527 38.1299 56.1065 37.8326 56.6126 37.6053L58.2182 39.8786C58.6545 40.5256 59.1955 40.9103 59.8412 40.4732C60.4869 40.036 60.295 39.389 59.8587 38.7419L58.7243 37.0632C59.021 37.0632 59.37 37.0107 59.6667 36.9408ZM35.7749 32.4816C37.014 32.3941 39.1082 31.7996 40.0506 32.9362C40.4171 33.3035 40.6789 33.8106 40.7313 34.3702C40.7313 34.5101 41.5341 41.8022 41.5341 41.9246C40.6091 41.3825 39.7016 40.8579 38.9512 40.4207L39.37 40.0185C39.9983 39.4064 39.021 38.4097 38.4101 39.0392C38.2182 39.2665 37.8691 39.5813 37.747 39.7037C37.6074 39.6163 37.4328 39.5114 37.2234 39.4064L36.6649 36.8883L38.2705 35.297C38.8988 34.6849 37.9215 33.6882 37.3107 34.3177L36.3159 35.3145L35.6876 32.4991C35.7051 32.4991 35.74 32.4991 35.7749 32.4816ZM29.1257 31.1351C30.4695 30.8728 32.5288 30.0159 33.6108 31.2925C34.466 31.852 35.2513 37.5703 35.5829 38.4796C33.8377 37.4654 31.7086 36.2238 30.7138 35.6467C31.2199 35.1571 32.1798 34.1778 32.3368 34.0379C32.5986 33.7756 32.5986 33.3384 32.3368 33.0761C32.0751 32.8138 31.6388 32.8138 31.377 33.0761L29.5794 34.8773C29.562 34.8948 29.5271 34.9298 29.5096 34.9647C28.9861 34.6675 28.0786 34.1254 27.2583 33.6532C27.1885 32.4466 27.9564 31.3799 29.1257 31.1351ZM59.7365 54.1305C60.295 54.4453 60.4869 55.2497 60.103 55.7743C57.206 59.9187 52.9477 62.979 48.0786 64.4129C45.3386 65.2173 42.4939 65.4796 39.6667 65.2173C39.2827 65.1823 38.8464 65.0774 38.4974 65.2348C38.1658 65.3572 37.9913 65.637 37.747 65.8643C36.9791 66.5813 35.7574 66.1966 34.7278 66.0742C30.9407 65.5845 24.8848 61.4226 23.8726 58.5023C23.8726 58.5198 23.8901 58.5198 23.8901 58.5373C23.6457 57.8553 24.1344 57.4705 24.0471 56.8235C19.2653 50.0211 17.7295 41.2076 21.5515 33.3035C21.8133 32.7089 22.5986 32.4816 23.1571 32.8138L43.9773 44.9498C41.6562 46.7685 41.4468 50.3009 43.541 52.3818C43.8028 52.6441 43.8726 53.0288 43.733 53.3611C43.733 53.3611 42.8779 55.0748 44.6056 56.0016C48.3927 57.7678 48.5498 51.5075 46.4555 49.4965C45.6353 48.6746 46.8918 47.4155 47.7121 48.2374C48.7243 49.2516 50.3997 49.7937 52.0751 49.6538L59.7365 54.1305Z" fill="#F9EEE1"/>
</g>
<defs>
<filter id="filter0_d_470_577" x="0" y="0" width="146" height="121" filterUnits="userSpaceOnUse" color-interpolation-filters="sRGB">
<feFlood flood-opacity="0" result="BackgroundImageFix"/>
<feColorMatrix in="SourceAlpha" type="matrix" values="0 0 0 0 0 0 0 0 0 0 0 0 0 0 0 0 0 0 127 0" result="hardAlpha"/>
<feOffset dy="1"/>
<feGaussianBlur stdDeviation="1.5"/>
<feComposite in2="hardAlpha" operator="out"/>
<feColorMatrix type="matrix" values="0 0 0 0 0.841667 0 0 0 0 0.560883 0 0 0 0 0.361215 0 0 0 0.5 0"/>
<feBlend mode="multiply" in2="BackgroundImageFix" result="effect1_dropShadow_470_577"/>
<feBlend mode="normal" in="SourceGraphic" in2="effect1_dropShadow_470_577" result="shape"/>
</filter>
</defs>
</svg>
