<svg  viewBox="0 0 175 175" fill="none" xmlns="http://www.w3.org/2000/svg">
<path d="M87.2989 174.525C135.513 174.525 174.598 135.456 174.598 87.2625C174.598 39.0687 135.513 0 87.2989 0C39.085 0 0 39.0687 0 87.2625C0 135.456 39.085 174.525 87.2989 174.525Z"/>
<path d="M136.769 88.2539C136.909 86.7406 136.374 85.209 135.343 84.0946C134.28 82.9596 132.787 82.2833 131.223 82.294L121.311 82.2516C118.386 79.1516 114.595 76.6907 110.998 76.8719C108.383 76.8079 105.809 75.1683 103.126 73.413C94.9874 67.4958 90.7807 68.2037 86.1501 70.1523C86.7786 68.4468 87.1287 66.747 87.2122 65.1062C86.2107 65.8874 85.0996 66.5531 83.8909 67.1564C83.5289 68.8029 82.8678 70.4877 81.9253 72.039C80.9269 72.4559 79.9285 72.8728 78.779 73.2392C78.385 73.3545 77.9377 73.4815 77.4578 73.5878C79.2209 71.8268 80.2019 70.0712 80.7238 68.3893L76.8903 69.518C76.4131 70.267 75.7967 71.0188 74.9671 71.8179C74.2944 72.4424 73.5566 73.0253 72.7863 73.5875C72.5226 73.7858 72.2381 74.0166 71.9537 74.2474C70.2414 74.347 68.4433 74.4375 66.7726 74.4719C68.2007 73.5962 69.7858 72.5459 71.1726 71.2318C72.4645 69.9947 73.5906 68.5146 74.1955 66.7025L80.4998 64.8587L80.6272 64.8025C80.8612 64.7227 80.9886 64.6665 81.2227 64.5867C85.3555 62.9162 88.3336 59.8233 89.2114 56.72C89.4397 55.8582 90.068 55.1597 90.8975 54.8641L135.929 37.4506C137.396 36.8741 137.986 34.8694 137.252 33.0741C136.923 32.2238 136.331 31.5718 135.68 31.1567C134.93 30.6794 134.027 30.5159 133.23 30.8322L88.7189 49.5848C87.9012 49.9337 86.9889 49.8561 86.2188 49.4113C83.3993 47.7981 79.1425 47.6501 74.9771 49.2998C74.743 49.3796 74.5208 49.5128 74.2868 49.5926L73.9372 49.7819L69.973 51.8346C69.2476 50.9604 68.4362 50.0772 67.5389 49.1851L71.3223 47.2004C70.955 47.058 70.6203 46.9363 70.2649 46.8472C69.4681 46.6601 68.3839 46.5645 66.5827 47.0194C66.5294 47.0312 66.4761 47.043 66.4228 47.0548C66.1354 47.1465 65.848 47.2381 65.5607 47.3297C65.3266 47.4095 65.0926 47.4893 64.8911 47.5899C64.1801 47.9152 62.974 49.1612 64.7864 50.7737C64.8516 50.8152 64.8634 50.8685 64.9286 50.91C69.4654 55.2195 71.2268 58.9969 71.572 63.1999C71.9321 67.5954 68.2551 70.0599 64.4894 72.3764C61.0939 74.4709 59.9883 76.9255 60.5236 79.464C60.9052 81.3095 64.2695 83.8648 66.9357 83.2743C71.255 82.3177 75.5435 85.004 76.5019 89.3229C77.4603 93.6418 74.7426 97.9077 70.4559 98.8851C68.2696 99.3693 66.9419 101.453 66.5858 103.378C66.559 103.636 66.4313 104.699 65.2434 104.766C63.863 104.848 63.5938 103.761 63.5643 103.376C63.2777 100.95 66.2117 96.7764 69.8051 95.9525C72.4921 95.3295 74.1725 92.6917 73.5691 89.9724C72.9775 87.3065 70.306 85.6046 67.5865 86.2069C63.2672 87.1635 57.7172 83.0784 57.3925 79.3464C57.065 75.4751 58.2745 72.3543 63.806 69.4231C66.2325 68.1305 68.9765 65.1173 68.7582 62.3687C68.2237 56.8091 63.3903 53.6841 61.5721 51.7932C59.5673 49.692 59.4493 48.1518 60.4449 47.0922C60.4449 47.0922 60.8065 46.4527 63.1085 45.3555C63.6596 45.0656 64.2018 44.8616 64.7024 44.7228C64.9365 44.643 65.2238 44.5513 65.4371 44.5041C65.8104 44.4214 66.1511 44.318 66.4829 44.3005C66.5895 44.2768 66.6754 44.2858 66.7821 44.2622L66.8354 44.2504C66.8354 44.2504 66.8354 44.2504 66.868 44.2711C69.466 44.0034 71.0091 44.5287 72.4249 45.1102C72.9433 45.303 73.4645 45.6351 74.0184 45.988C75.2301 45.5238 76.4447 45.1988 77.683 44.9805C76.3414 43.8512 74.9169 42.8521 73.5663 42.3121C71.7832 41.5882 69.5825 40.8729 66.078 41.3414C65.6395 41.3826 65.1596 41.4889 64.659 41.6277C64.2324 41.7222 61.3143 42.5643 59.2906 44.1593C57.6432 45.3073 57.0503 46.6693 56.8367 47.7235C56.4924 49.7017 57.3183 51.7844 59.3349 53.939C59.631 54.265 59.9479 54.5584 60.2973 54.8726C60.472 55.0297 60.6468 55.1868 60.8541 55.3646C62.8738 57.1549 65.3851 59.3957 65.701 62.7101C65.7571 63.341 65.1998 64.3594 64.2872 65.2888C63.7419 65.8571 63.0782 66.3957 62.3257 66.7861C57.3246 69.46 55.4101 72.1776 54.6921 75.7489C50.4735 76.907 47.0366 79.0667 45.0242 82.2255L37.4704 82.2203C35.9064 82.2311 34.3984 82.8727 33.3612 83.9974C32.3241 85.1222 31.7993 86.6649 31.938 88.1725C33.5108 107.487 45.5028 123.963 62.5393 131.657C62.5423 131.796 62.5452 131.936 62.5688 132.042C63.6456 136.894 73.328 140.819 84.1284 140.833C88.0179 140.838 91.7357 140.323 94.9648 139.496C100.771 137.93 105.011 135.229 105.729 132.161C105.759 132.043 105.776 131.871 105.774 131.732C111.803 129.026 117.305 125.206 121.951 120.429C130.541 111.618 135.767 100.251 136.769 88.2539ZM73.3661 57.2925C73.0049 56.4215 72.5905 55.5623 72.0901 54.6941L77.0407 52.6747C77.4762 52.4943 77.9916 52.548 78.35 52.7763C78.578 52.9216 78.7972 53.1527 78.9215 53.4608C79.2264 54.2045 78.8795 55.0365 78.1359 55.341L73.3661 57.2925ZM74.2272 60.0386L79.1778 58.0191C79.6133 57.8388 80.1287 57.8924 80.4871 58.1207C80.7151 58.266 80.9343 58.4972 81.0586 58.8053C81.3635 59.5489 81.0166 60.3809 80.273 60.6855C80.1663 60.7091 80.0597 60.7327 79.9531 60.7563L74.6618 62.8792L74.65 62.8259C74.6088 61.884 74.461 60.9658 74.2272 60.0386ZM66.4005 80.2322C65.494 80.433 63.7346 79.8158 63.4031 78.8263C63.2315 78.3049 63.3265 77.7245 63.6792 77.1709C66.2357 76.9683 68.7417 76.9167 70.9783 76.785C77.0569 76.4456 79.4386 76.5894 84.3507 74.2708C85.4647 73.7444 86.6942 73.1085 88.1667 72.3069C89.0674 71.8277 89.9621 71.5736 90.9041 71.5328C97.3886 71.1315 104.507 80.0157 110.912 79.8839C113.249 79.9537 115.284 80.9295 116.972 82.2338L75.4082 82.1251C72.9382 80.3227 69.6533 79.5118 66.4005 80.2322ZM54.5075 78.6987C54.5104 78.8379 54.4926 79.0097 54.4748 79.1815C54.4419 80.1677 54.6341 81.16 55.0189 82.1376L48.7833 82.1481C50.2383 80.5113 52.2411 79.4524 54.5075 78.6987ZM103.698 129.31C103.381 129.52 103.117 129.719 102.877 130.024C102.032 131.134 102.497 132.345 101.341 133.44L101.321 133.473C101.3 133.505 101.247 133.517 101.226 133.55C100.921 133.813 100.497 134.047 100.053 134.313C96.8231 136.147 91.221 137.752 84.3634 137.732C79.5527 137.735 75.3672 136.899 72.1832 135.787L72.1506 135.766C72.1506 135.766 71.967 135.695 71.6648 135.594C70.7467 135.238 69.8818 134.87 69.1236 134.478C68.4631 134.149 67.8234 133.787 67.4621 133.42C67.4621 133.42 67.4621 133.42 67.4295 133.399C66.2716 132.341 66.7282 131.121 65.8902 129.992C65.6474 129.654 65.3749 129.435 65.0284 129.26C48.4123 122.199 36.6601 106.426 35.1344 87.8282C35.0665 87.144 35.3096 86.4748 35.7808 85.9509C36.2519 85.427 36.9422 85.1343 37.6709 85.1407L57.0649 85.1808C57.4262 85.5483 57.7874 85.9158 58.2228 86.2389C61.1991 88.6844 65.1978 89.8126 68.418 89.0715C69.4845 88.8353 70.527 89.4994 70.7636 90.5658C71.0003 91.6322 70.3364 92.6743 69.2699 92.9105C64.29 94.0414 60.7009 99.6751 60.6583 103.265C60.64 104.947 61.7532 106.938 65.0057 107.225C69.3098 107.586 69.7673 103.345 69.7673 103.345C69.8801 102.593 70.4875 101.927 71.2874 101.75C77.2272 100.406 80.9496 94.4912 79.6362 88.5728C79.3641 87.3464 78.8905 86.2206 78.248 85.2162L131.275 85.3032C132.004 85.3096 132.653 85.5855 133.135 86.1219C133.618 86.6583 133.846 87.3071 133.775 87.9942C132.16 106.56 120.244 122.317 103.698 129.31Z" fill="#F9EEE1"/>
</svg>
