<?xml version="1.0" encoding="UTF-8"?>
<svg fill="none" viewBox="0 0 27 25" xmlns="http://www.w3.org/2000/svg">
    <path
        d="m24.829 5.8106c-2.4782-3.9651-6.9357-5.9381-11.374-5.4452-2.2625 0.25126-4.3097 1.2887-5.8483 2.3877-0.77451 0.55325-1.4381 1.1348-1.9546 1.6668-0.33775 0.34785-0.63571 0.69812-0.86101 1.0236l-3.2428-1.5816c-0.79168-0.38613-1.6597 0.3658-1.3905 1.2045l2.2551 7.0243c0.17385 0.5415 0.76371 0.8292 1.2975 0.6328l6.9236-2.5476c0.8267-0.30418 0.8848-1.4512 0.0931-1.8373l-4.1063-2.0028c0.12087-0.15007 0.27539-0.32607 0.46638-0.52277 0.43164-0.44456 1.0039-0.94798 1.6822-1.4325 1.3671-0.97658 3.0935-1.826 4.9065-2.0274 3.7131-0.41236 7.4067 1.2373 9.4568 4.5175 2.0909 3.3453 2.4805 7.8978 0.016 11.595-1.8999 2.8498-5.7495 4.5359-9.5832 4.5359-1.7932 0-3.5369-0.6665-5.0835-1.6087-1.5429-0.94-2.8311-2.119-3.6911-3.0508-0.3746-0.4058-1.0073-0.4311-1.4131-0.0565s-0.43113 1.0073-0.05652 1.4131c0.95126 1.0305 2.3801 2.3421 4.1202 3.4022 1.7364 1.0578 3.8418 1.9007 6.124 1.9007 4.3173 0 8.8843-1.8821 11.247-5.4265 2.9695-4.454 2.4535-9.864 0.016-13.764z"
        clip-rule="evenodd" fill="url(#a)" fill-rule="evenodd" />
    <defs>
        <linearGradient id="a" x1=".1084" x2="26.853" y1="12.646" y2="12.646" gradientUnits="userSpaceOnUse">
            <stop stop-color="#F98F5C" offset="0" />
            <stop stop-color="#FA9268" offset=".47917" />
            <stop stop-color="#FCA262" offset=".91146" />
        </linearGradient>
    </defs>
</svg>