<svg width="24" height="24" viewBox="0 0 24 24" fill="none" xmlns="http://www.w3.org/2000/svg">
<g clip-path="url(#clip0_330_57)">
<path d="M15.59 9.78058C15.8731 10.2539 16.0593 10.7787 16.1377 11.3246C16.2163 11.8708 16.1853 12.4272 16.0468 12.9614C15.9082 13.4956 15.6648 13.9968 15.3307 14.4361C14.9966 14.8753 14.5785 15.2436 14.1006 15.5197C13.6228 15.7958 13.0948 15.9741 12.5475 16.0442C12.0001 16.1142 11.4442 16.0748 10.9123 15.928C10.3803 15.7812 9.88283 15.5301 9.44882 15.1893C9.01518 14.8487 8.65355 14.4253 8.38495 13.9438C7.30465 12.0293 7.94996 9.52061 9.81946 8.36365L15.59 9.78058ZM15.59 9.78058C15.3081 9.30486 14.9343 8.89007 14.4903 8.56046C14.046 8.2306 13.5403 7.99267 13.0029 7.86062C12.4655 7.72857 11.9071 7.70504 11.3605 7.79142C10.8139 7.87778 10.2901 8.0723 9.81957 8.36359L15.59 9.78058ZM7.36374 14.9589C6.77856 14.042 6.4784 12.9721 6.50121 11.8846C6.53356 10.4269 7.14274 9.04144 8.19514 8.03221C9.24753 7.02299 10.6572 6.47236 12.115 6.50107C13.2025 6.52382 14.2588 6.86852 15.1505 7.4916C16.0421 8.11473 16.729 8.98829 17.1242 10.0018C17.5194 11.0153 17.6052 12.1233 17.3707 13.1856C17.1362 14.2478 16.5919 15.2167 15.8068 15.9697C15.0216 16.7226 14.0308 17.2258 12.9597 17.4156C11.8885 17.6054 10.7851 17.4733 9.78908 17.036C8.793 16.5987 7.94898 15.8759 7.36374 14.9589Z" fill="#F2594B" stroke="#F2594B"/>
<path d="M23.9422 13.1773C24.0272 12.3096 24.0183 11.4354 23.9159 10.5697L21.8936 10.0864C21.7856 9.55015 21.6367 9.02298 21.4482 8.50948L22.9301 7.05068C22.75 6.65329 22.5482 6.26612 22.3255 5.89095C22.1045 5.51552 21.8625 5.15277 21.6009 4.80439L19.6068 5.39934C19.2492 4.98516 18.8581 4.60114 18.4374 4.25116L18.9894 2.24619C18.2807 1.73913 17.5194 1.31006 16.7186 0.966442L15.2867 2.48172C14.7704 2.30299 14.2405 2.16648 13.7021 2.07354L13.1726 0.0550887C12.3067 -0.0291849 11.4342 -0.0184242 10.5707 0.0871786L10.0829 2.10884C9.54735 2.21416 9.02124 2.36291 8.50982 2.55361L7.04649 1.07298C6.6491 1.25122 6.26211 1.45178 5.88737 1.6737C5.51333 1.89531 5.15128 2.13654 4.80271 2.39636L5.39702 4.39492C4.98383 4.75314 4.60007 5.14397 4.24946 5.56364L2.24443 5.01297C1.73671 5.72028 1.30759 6.48081 0.964653 7.28109L2.47805 8.71486C2.30172 9.23097 2.16631 9.76016 2.07307 10.2975L0.0577686 10.8264C-0.0275738 11.6934 -0.0185326 12.567 0.0847276 13.4321L2.10965 13.9134C2.21484 14.4507 2.36227 14.9788 2.55058 15.4929L1.06991 16.9543C1.24787 17.3506 1.44866 17.7364 1.67129 18.1095C1.8928 18.4846 2.1347 18.8474 2.3959 19.1961L4.39579 18.603C4.7542 19.0157 5.14503 19.399 5.56454 19.7493L5.01515 21.7568C5.72095 22.263 6.48003 22.6904 7.27882 23.0314L8.71456 21.5194C9.23081 21.6994 9.76133 21.8355 10.3005 21.9263L10.8281 23.9434C11.6949 24.0269 12.5683 24.0177 13.4332 23.9158L13.9152 21.8922C14.4516 21.7872 14.9786 21.6384 15.4908 21.4475L16.9593 22.9287C17.3554 22.7506 17.7411 22.5502 18.1146 22.3287C18.4891 22.1068 18.851 21.8643 19.1986 21.6021L18.6049 19.6074C19.018 19.2491 19.4017 18.8582 19.7525 18.4387L21.7556 18.9881C22.2631 18.2808 22.6912 17.5197 23.0322 16.7187L21.5188 15.2837C21.6971 14.7686 21.8336 14.2399 21.927 13.7029L23.9422 13.1773ZM11.837 19.7512C10.3038 19.719 8.81456 19.2329 7.55764 18.3544C6.30071 17.4758 5.33254 16.2443 4.77555 14.8155C4.21855 13.3867 4.09776 11.8249 4.42844 10.3275C4.75911 8.83004 5.52641 7.46429 6.63331 6.40294C7.7402 5.34158 9.13696 4.63228 10.647 4.36473C12.157 4.09718 13.7125 4.28339 15.1166 4.89983C16.5208 5.51626 17.7107 6.53523 18.5357 7.82788C19.3608 9.12052 19.784 10.6288 19.7518 12.162C19.7067 14.2172 18.8479 16.1707 17.3641 17.5935C15.8802 19.0163 13.8924 19.7923 11.837 19.7512V19.7512Z" stroke="#F2594B"/>
</g>
<defs>
<clipPath id="clip0_330_57">
<rect width="24" height="24" fill="white"/>
</clipPath>
</defs>
</svg>
