<svg width="18" height="17" viewBox="0 0 18 17" fill="none" xmlns="http://www.w3.org/2000/svg">
<path d="M8.04894 2.16312C8.3483 1.24181 9.6517 1.24181 9.95106 2.16312L10.5186 3.90983C10.9202 5.1459 12.0721 5.98278 13.3718 5.98278H15.2084C16.1771 5.98278 16.5799 7.22239 15.7962 7.7918L14.3103 8.87132C13.2588 9.63526 12.8189 10.9894 13.2205 12.2254L13.788 13.9721C14.0874 14.8934 13.0329 15.6596 12.2492 15.0902L10.7634 14.0106C9.71189 13.2467 8.28811 13.2467 7.23665 14.0106L5.7508 15.0902C4.96709 15.6596 3.91261 14.8934 4.21196 13.9721L4.7795 12.2254C5.18112 10.9894 4.74115 9.63526 3.68969 8.87132L2.20385 7.7918C1.42013 7.22239 1.82291 5.98278 2.79163 5.98278H4.62823C5.92791 5.98278 7.07978 5.1459 7.4814 3.90983L8.04894 2.16312Z" stroke="black" stroke-width="2"/>
</svg>
